<svg id="Layer_1" data-name="Layer 1" xmlns="http://www.w3.org/2000/svg" viewBox="0 0 725.22 500"><defs><style>.cls-1{fill:##22223;}.cls-2{fill:#22223;}</style></defs><path class="cls-1" d="M142.23,252.48a25.47,25.47,0,0,0-22.91-.54,27.35,27.35,0,0,0-11.95,12c-5.29,10.39-10.1,21-12.84,32.35C90.25,314,89.86,332.85,91.65,351c.53,5.36,1.27,10.71,2.22,16A7.39,7.39,0,0,0,95,370.22c.59.84,1.22,1.65,1.83,2.47q2.19,3,4.35,6c4.85,6.78,10.23,13.65,14,21.13a9.36,9.36,0,0,1,.76,1.84c.19.65,0-.07.07.37s.09-.2,0,.14.42-.32-.08.2a3.34,3.34,0,0,1-1,.74,10.64,10.64,0,0,1-4.18.75c-7.83.33-15.83-1.62-23.39-3.46l1.12.86a129.44,129.44,0,0,1-21.13-64.7,155,155,0,0,1,1-27.41c.42-3.43.67-7.16,2-10.37q2.25-5.54,4.08-11.23a144.06,144.06,0,0,0,6-61.5c-1-8.59-2.6-17.12-3.28-25.76A107.48,107.48,0,0,1,78,176c3.28-21.81,11.88-42.36,23.49-61a1.9,1.9,0,0,0-1.62-2.82C82.26,110.4,63.45,103,50.74,90A67.74,67.74,0,0,1,35.23,63.54c-4.18-12.89-4.35-27.78,6.35-37.61,7.83-7.19,19.5-10.4,30-10a17.62,17.62,0,0,1,4.51.6c.12,0,.74.21.37.12.43.1.22.34.19.05a2.19,2.19,0,0,1-.25-.76c-.08-.91.47-.63,0-.56-.65.11-2.71,1.36-3.74,1.8-2.08.88-4.18,1.73-6.24,2.68-7.64,3.5-16.27,8.91-17.12,18.11-.45,4.86,1.48,9.7,3.89,13.83,4.24,7.28,10.33,13.47,16.51,19.12C80.31,80.58,92,89.06,103.89,97.1q5.82,3.95,11.74,7.74a1.91,1.91,0,0,0,2.28-.3,153.38,153.38,0,0,1,57.48-39c23.19-8.76,48.8-12.17,73.37-8.47C274.34,61,298.28,73,320.92,85c18.4,9.72,36.47,20.19,53.92,31.53q3,1.91,5.83,3.91c5.51,3.86,11.74,4.86,18,2.22,8.1-3.41,15.84-8,23.66-12l24.27-12.48L459,91.77l-2.75-2.11c-5.44,15.66-11,31.66-20.93,45.15-2.45,3.34-5.3,6.24-8,9.33-2.42,2.74-4.28,5.92-4,9.71.3,4,2.57,7.42,4.92,10.48,2.47,3.23,5,6.36,7.34,9.72a51.87,51.87,0,0,1,6,11.14,38.76,38.76,0,0,1,2.13,13,49.9,49.9,0,0,0,1.4,12.37,45.49,45.49,0,0,0,4.37,10.22c3.78,6.63,8.77,12.47,13.52,18.41,2.4,3,6,6.52,7,10.33,1,4.05-2.06,7.78-5.47,9.54-4,2.07-8.82,2.34-13.25,2.86l-6.65.78c-2.19.25-4.74.88-6.93.34-1.91-.46-3.22-2.09-4.44-3.51a44.28,44.28,0,0,0-4.28-4.49,39.08,39.08,0,0,0-9.66-6.32c-2.8-1.28-5.7-1.88-8.2-3.71a68,68,0,0,1-5.4-4.76c-3.82-3.43-9.68-4.69-14.54-5.82-1.7-.4-3.52-.61-5.17-1.17-2.66-.89-5.18-2.48-7.73-3.64a8.11,8.11,0,0,0-7.41,0c-4.54,2.08-8.29,6.06-11.61,9.67-1.35,1.46-2.65,2.95-3.92,4.47-.92,1.09-1.92,2-2.24,3.45s-.53,3.17-.74,4.74c-1.4,10.51-2.25,21.11-3.08,31.67-.85,10.94-1.14,21.88-1.74,32.83-.78,14.34-1.81,28.64-1.38,43,.23,7.42.43,14.94,1.4,22.3a89.75,89.75,0,0,0,5.62,20.84c1.91,4.94,4.6,9.81,5.84,15a5.51,5.51,0,0,1-.14,4c-1.38,2.43-5.2,2.51-7.61,2.48-7.39-.1-16.22-2.49-18.69-9.86a45,45,0,0,1-1.77-12.27c-.33-7.5-.09-15,.24-22.52q.26-5.68.64-11.35c.3-4.55,1-9.15,1.11-13.7.13-4.78-.28-9.64-.42-14.43l-.39-13.67c-.72-25.25-1.6-50.49-1.92-75.75a68.15,68.15,0,0,0-.53-10.88,34.9,34.9,0,0,0-10.77-19.23c-2.82-2.62-8.84-7.56-12.9-4.56-1,.77-1.37,2.08-2.43,2.83a7.33,7.33,0,0,1-4.21.95c-3.28,0-6.54-.55-9.82-.23-2.63.25-5.42,1-7.37,2.89a16.57,16.57,0,0,0-3.35,5.59A154.11,154.11,0,0,0,273,245.23a160.85,160.85,0,0,0-4.78,27.3c-1.35,13-2.29,25.94-3.11,38.93-1.11,17.37-1.37,34.86-3.07,52.17A73.45,73.45,0,0,0,263.52,388c2,8.16,5.69,15.56,10,22.71a76.73,76.73,0,0,1,4.38,7.68c.48,1.06,1.44,3.24.62,4.21a5.54,5.54,0,0,1-1.23.4,20,20,0,0,1-3.19.35c-3.71.21-7.44.16-11.16.16-5.53,0-12,.88-15.07-4.67a12.11,12.11,0,0,1-1.34-7.68q.61-5.91,1.11-11.82,2-24.51,2.05-49.13c0-11.74-.55-23.45-1.33-35.17-.56-8.45-1.08-16.9-1.81-25.34a134.1,134.1,0,0,0-3.78-21.26c-2.35-9.45-2.21-19.75-2.34-29.42s0-19.3.49-28.92q.09-1.83.24-3.66a4.8,4.8,0,0,0,0-.52c0-.18.05,0,0,0-.74-.25-1.86,2-.24.49,1.47-1.38,2.24-4,2.81-5.83a15.89,15.89,0,0,0,.4-9.23c-2.6-8.27-13.91-9.6-21.13-10.13-1.83-.14-3.68-.21-5.52-.24s-4.9-.59-6.53.29-3.32,3.12-4.74,4.48l-5.61,5.39-21.2,20.35c-1.25,1.21-3.63,2.74-4.22,4.42A12.69,12.69,0,0,0,175,219l-.24,4.25q-.41,6.91-.86,13.83-.82,12.17-1.85,24.33-1.8,21.39-4.25,42.71c-1.46,12.82-3.31,25.68-3.77,38.59-.31,8.55.29,17.19,3.23,25.29a70.53,70.53,0,0,0,7.77,15c3.68,5.53,8.16,10.49,11.78,16.05.9,1.38,2.23,3.25,2.16,5s-2,2.43-3.49,2.73c-6.51,1.3-14-.91-20.25-2.51l1.12.86A244,244,0,0,1,143.1,254.6c.39-2.36-3.23-3.38-3.62-1a249.71,249.71,0,0,0,.45,84.41,244.65,244.65,0,0,0,12.9,45.93q3.48,9,7.65,17.65c.56,1.16,1.12,2.32,1.69,3.47.81,1.61,1.16,2.52,3,3a101.14,101.14,0,0,0,10,2.06c4.7.69,11.77,1.8,15.64-1.83,3-2.82,1.82-6.8,0-9.92-2.82-4.88-6.74-9.13-10-13.69a77.75,77.75,0,0,1-9.06-15.52,57.41,57.41,0,0,1-4-22.26c0-10.85,1.43-21.7,2.66-32.46,3.24-28.29,6-56.59,7.78-85q.39-6.53.75-13l-.55,1.33,34.9-33.53-1.32.55c6.14-.14,12.44-.1,18.47,1.22,2.93.65,6.19,1.57,8.42,3.7,2.62,2.51,2.37,6.5,1.32,9.9a20.17,20.17,0,0,1-1.09,2.83c-.21.41-1.23,2.16-.1,1-.56.58-1,.5-1.34,1.36a4.78,4.78,0,0,0-.11.66c-1,5.45-.66,11.37-.77,16.87-.19,9.33-.18,18.67.25,28,.2,4.21.48,8.42,1,12.6A96.16,96.16,0,0,0,240.37,274a118.54,118.54,0,0,1,2.76,19.95q.78,10.71,1.49,21.42a555,555,0,0,1,.47,66.27q-.61,11.43-1.66,22.85c-.48,5.17-1.63,10.08.57,15a12,12,0,0,0,9.17,7.35c6,1,12.46.54,18.55.37,2.81-.08,7.42.26,9.55-2.06,2.51-2.72.79-6.84-.62-9.61-2.59-5.07-5.9-9.73-8.46-14.82a63,63,0,0,1-6.49-22.12c-.66-6.66,0-13.06.64-19.67.8-7.78.71-15.75,1.1-23.56q1-19.94,2.47-39.85c1.3-17.3,2.39-34.7,7.28-51.42a135.91,135.91,0,0,1,4.93-15,11.37,11.37,0,0,1,2.69-4.37c1.82-1.52,4.58-1.7,6.84-1.69,4.66,0,10.65,1.62,14.52-1.84.63-.57,1.19-2,1.86-2.38.47-.26,1.24,0,1.7.14a16.21,16.21,0,0,1,5.86,3.7,31.87,31.87,0,0,1,9.82,16,44.22,44.22,0,0,1,.79,10.14c.08,7.52.26,15.05.44,22.57.64,26.24,1.43,52.47,2.18,78.71.22,7.55-.84,15.11-1.27,22.65-.38,6.53-.65,13.07-.72,19.61-.08,7.79-.5,16.78,2.51,24.16,2.63,6.44,9.32,9.8,15.93,10.84s18.51,1,17.64-8.48c-.36-3.81-2.18-7.44-3.65-10.92a134.29,134.29,0,0,1-6-16.46c-3.29-11.9-3.42-24.59-3.58-36.86-.15-11.93.68-23.82,1.36-35.72.55-9.65.72-19.32,1.4-29,.66-9.15,1.43-18.29,2.36-27.42.38-3.76.76-7.53,1.3-11.27a13.43,13.43,0,0,1,.57-3.34c.46-1,1.94-2.31,2.73-3.23q1.71-2,3.51-3.86c2.73-2.87,5.8-6.13,9.5-7.78,2-.9,2.49-.7,4.31.14,3.63,1.69,7,3.58,10.95,4.44,4.34.94,8.89,1.9,12.88,3.91a16.17,16.17,0,0,1,4,3.11,41.31,41.31,0,0,0,5.54,4.42c2.09,1.38,4.53,1.83,6.81,2.82a35.32,35.32,0,0,1,8.78,5.47c2.47,2.1,4.3,4.74,6.65,6.93a10.22,10.22,0,0,0,8.27,2.72c3.94-.31,7.88-.91,11.8-1.37a55.52,55.52,0,0,0,10.33-1.77C468.36,262,474,257.4,473.87,251c-.05-3.3-1.88-6.08-3.77-8.64s-4-5.17-6-7.72c-4.13-5.13-8.34-10.27-11.57-16A40,40,0,0,1,447.41,199c-.14-7.23-1.33-13.75-4.68-20.23-3.19-6.17-7.62-11.4-11.78-16.91-2.07-2.76-4.44-6.19-3.91-9.83.48-3.28,3.25-5.65,5.39-7.95a87.35,87.35,0,0,0,12-16.5C451,116,455.45,103.25,459.81,90.65c.57-1.64-1.4-2.81-2.75-2.11L408.14,113.7c-4,2-8,4.56-12.28,6a13.4,13.4,0,0,1-11.1-1.15c-2.18-1.21-4.19-2.8-6.28-4.18-16.77-11-34.23-21.17-51.93-30.67-11.31-6.08-22.8-11.86-34.56-17-11.43-5-23.15-9.48-35.39-12-24.43-5-49.93-3-73.68,4.31A155.87,155.87,0,0,0,119.21,97.8q-2,2-4,4.09l2.28-.29c-14-9-27.76-18.38-40.4-29.17-7.19-6.12-14.42-12.79-19.59-20.78-2.73-4.22-4.86-8.84-4.47-13.64a3.89,3.89,0,0,1,.14-1,13.6,13.6,0,0,1,.43-1.58,15.2,15.2,0,0,1,4.53-6.27c4-3.52,9.07-5.73,13.93-7.77,2.22-.94,7.56-2.22,8-5.18.45-3.13-4-3.69-6.17-3.93A47.72,47.72,0,0,0,43,20,32.4,32.4,0,0,0,30.79,35.4C28.34,42,28.31,49.14,29.47,56A72.14,72.14,0,0,0,41.75,85c12.71,17.78,34.06,27.67,55.31,30.53.93.13,1.87.24,2.81.34l-1.62-2.83c-10.49,16.86-18.63,35.31-22.61,54.82A121.15,121.15,0,0,0,73,190.59c-.11,8.5,1,16.93,2.22,25.33a201.89,201.89,0,0,1,2.55,26.88A134.81,134.81,0,0,1,73.68,276c-1.11,4.57-2.44,9.09-4,13.54-.66,1.94-1.37,3.86-2.1,5.77a27.17,27.17,0,0,0-1.77,4.91,166.93,166.93,0,0,0-2.49,23.71,137.79,137.79,0,0,0,12.48,62.78,127.65,127.65,0,0,0,8.08,14.62c1.21,1.89,1.73,2.59,3.9,3.11,1.78.42,3.56.82,5.36,1.18,6.7,1.38,14.61,3.21,21.42,1.54,3.42-.83,5.91-3.35,4.76-6.91a28.66,28.66,0,0,0-3.12-6c-2.41-3.9-5-7.68-7.64-11.44q-4.66-6.69-9.51-13.25c-1.61-2.18-1.81-4.63-2.23-7.26-.48-3-.88-6-1.22-9a192.83,192.83,0,0,1-1-28.53c.64-16.94,3.89-33.52,11.12-48.9,1.8-3.81,3.52-7.82,5.69-11.44,4-6.59,10.82-11.2,18.66-11.21a22.44,22.44,0,0,1,10.28,2.55C142.48,256.83,144.38,253.6,142.23,252.48Z"/><path class="cls-1" d="M359.2,189.79a42.45,42.45,0,0,1-8.85-22.92,15.53,15.53,0,0,1-.08-3c.05-.38.05-.13.07-.14a5.43,5.43,0,0,1,1.66,0h22.06l16.85,0a1.89,1.89,0,0,0,1.8-2.37c-.91-3.67-3.75-6.89-6.12-9.74a24.9,24.9,0,0,0-7.86-6.69,14.6,14.6,0,0,0-11.14-.71c-4.14,1.34-7.93,3.78-11.7,5.92q-3.3,1.89-6.59,3.84c-1,.57-2.37,1.1-3.06,2s-.56,2.6-.67,3.66a1.88,1.88,0,1,0,3.75,0l.27-2.52-.93,1.62q6.33-3.79,12.77-7.4c3.66-2.05,7.77-4.64,12.16-4.13,3.55.42,6.47,2.82,8.83,5.34a51.52,51.52,0,0,1,3.57,4.37,15.86,15.86,0,0,1,3.11,5.45l1.81-2.38-32.71,0c-2.64,0-5.32-.15-7.95,0-2.43.16-3.66,1.87-3.74,4.21a40.69,40.69,0,0,0,2.2,13.66,45.83,45.83,0,0,0,7.25,13.8,2,2,0,0,0,2.57.67,1.89,1.89,0,0,0,.67-2.57Z"/><path class="cls-1" d="M416.55,140.41c.35-2.09,1.81-3.55,3.3-5a62.58,62.58,0,0,1,5-4.33,73.58,73.58,0,0,1,11.7-7.21c3.75-1.91,7.4-4,10-7.41,2.14-2.85,3.43-6.7,6.54-8.68,2-1.3.15-4.54-1.89-3.24-2.68,1.71-4.32,4.34-5.92,7a18.92,18.92,0,0,1-6.49,6.84c-3,1.86-6.32,3.27-9.38,5.09a69.68,69.68,0,0,0-9.24,6.61c-2.88,2.43-6.57,5.34-7.24,9.29-.4,2.36,3.22,3.37,3.62,1Z"/><path class="cls-1" d="M409,215.54a24.67,24.67,0,0,0,8.61.29,23.92,23.92,0,0,0,4.19-1,18.34,18.34,0,0,1,2.84-1c.23,0,0,0-.07,0a1,1,0,0,1,.25,0c.21,0-.06,0-.09,0a.94.94,0,0,1,.24.06s0,0,0,0a.62.62,0,0,1,.17.2,5,5,0,0,1,.47,2.82,7,7,0,0,1-.66,2.62c-.28.53-.62.95-1.23.86-.26,0-.59-.2-.79-.24.08,0-.19-.11-.17-.1.28.15,0,.2.07,0,0,0,.1.27,0,0s-.07-.25-.1-.38,0-.21,0-.46a4.45,4.45,0,0,1,.16-1.4c0-.09.19-.63.11-.41a.92.92,0,0,1,.13-.24c.14-.25-.27.26,0-.06,1.67-1.75-1-4.4-2.65-2.65a6.93,6.93,0,0,0-.73,7.72,5.15,5.15,0,0,0,4.4,1.92,4.86,4.86,0,0,0,3.93-2.53,10.17,10.17,0,0,0,.45-9.1,4.21,4.21,0,0,0-3-2.33,6.74,6.74,0,0,0-3.64.61A20.64,20.64,0,0,1,410,211.92a1.88,1.88,0,0,0-1,3.62Z"/><path class="cls-1" d="M468.9,251.93a70.63,70.63,0,0,0-9.68,8.52l3.93,3,.26-.34c-.29.38,0,0,.08-.1l.54-.68c.41-.51.83-1,1.26-1.51.83-1,1.69-1.9,2.58-2.82a63.89,63.89,0,0,1,5.64-5.14L470,249.35l-5.26,5.15,4.17,2.44a19,19,0,0,1,.91-3.16l.12-.29c-.12.27-.12.27,0,0s.24-.51.37-.77q.39-.75.84-1.47a2.52,2.52,0,0,0-.9-3.42,2.55,2.55,0,0,0-3.42.9,20.5,20.5,0,0,0-2.74,6.87,2.5,2.5,0,0,0,4.18,2.43l5.27-5.15a2.55,2.55,0,0,0,0-3.54,2.58,2.58,0,0,0-3.54,0A66.92,66.92,0,0,0,458.83,261a2.5,2.5,0,0,0,3.92,3q2.07-2.21,4.32-4.21c.72-.64,1.46-1.27,2.21-1.88l.61-.49.29-.22c.41-.32.83-.63,1.25-.94a2.5,2.5,0,0,0-2.53-4.32Z"/><path class="cls-1" d="M672.82,280.85c4.32,24.76,6.67,37.1,8.75,47,3.3,15.59,6.38,31.34,7.7,47.28.54,6.53.92,13.72-2.57,19.58a16.29,16.29,0,0,1-15.43,7.51c-6.36-.5-11.85-4.15-15.71-9.07a42.38,42.38,0,0,1-4.81-7.92,37.1,37.1,0,0,0-4.37-7.71c-1.73-2.08-4.24-4-7.09-3.28s-4.82,3.16-6.2,5.52C629.35,386.14,627,393.24,624,400a18.07,18.07,0,0,1-11.14,10,26.22,26.22,0,0,1-15,0,25,25,0,0,1-13.38-9.05c-3.37-4.58-4.78-10.24-5.81-15.77-1.07-5.76-1.57-12-4.23-17.28a15.85,15.85,0,0,0-6-6.66,23.52,23.52,0,0,0-8.88-2.9c-12.67-1.73-25.69,3.53-34.33,12.76a38.16,38.16,0,0,0-5.94,8.33,39.24,39.24,0,0,0-3.41,9.64c-1.28,5.6-2.11,11.54-6.83,15.38a18.1,18.1,0,0,1-8,3.61c-2.15.42-3.07-2.87-.91-3.3a14.33,14.33,0,0,0,7.52-3.66,14,14,0,0,0,3.41-6.36c.83-3,1.31-6.06,2.11-9.06a38.57,38.57,0,0,1,4.1-9.65,44.52,44.52,0,0,1,31.78-21c6.39-.87,13.24-.44,19.17,2.26,6.14,2.81,9.62,8.41,11.35,14.73,2.85,10.44,2,23.5,11.43,30.85a24,24,0,0,0,13.24,4.78c4.48.24,9.29-.68,12.77-3.67a16.62,16.62,0,0,0,4.22-6.09c1.54-3.42,2.89-6.89,4.34-10.33a76,76,0,0,1,4.67-9.66A15.21,15.21,0,0,1,637,371.4c6.61-2.8,11.91,2.93,14.74,8.26,1.37,2.61,2.51,5.36,4,7.9a28.28,28.28,0,0,0,5.75,6.95c4.36,3.74,10.35,5.46,15.89,3.54,6-2.05,8.38-8.07,8.7-14a70.61,70.61,0,0,0-.39-10.07q-.51-5.87-1.33-11.7c-1.08-7.83-2.5-15.62-4-23.38-3.09-15.47-6.69-30.84-9.27-46.4-.47-2.87-.87-5.8-1.7-11.67-2.27-15.87-3.9-28.87-5-37.82q.83-2.59,1.66-5.19C667.39,247.26,669.58,262.3,672.82,280.85Z"/><path class="cls-1" d="M501,408a65.35,65.35,0,0,1-27.32-.35c-6.83-1.67-13.8-4.78-18.58-10.12S448,384.59,447,377.57c-1-7.6.44-15.81,3.22-22.9.75-1.92,1.67-3.74,2.26-5.71q1.11-3.66,2.26-7.3,1.89-5.88,3.95-11.7c3-8.45,6-16.86,8.87-25.35,5.05-15.19,9.57-30.54,14.62-45.72a26.91,26.91,0,0,0,1-3.39,7,7,0,0,0-.45-3.68c-.79-2.5-1.61-5-2.45-7.51-1.61-4.75-3.27-9.48-4.87-14.24-3.2-9.5-6.15-19.12-7.77-29-.41-2.48-.74-5-1-7.51a1.68,1.68,0,0,1,1.48-1.67,1.73,1.73,0,0,1,1.87,1.22,4.54,4.54,0,0,1,.29,1.41,1.68,1.68,0,0,1-1.48,1.68,1.74,1.74,0,0,1-1.87-1.22,4,4,0,0,1-.23-1,1.73,1.73,0,0,1,2.5-1.93l.5.2.88.37a6.9,6.9,0,0,1,1.66,1c1,.89,1.44,2.63,0,3.42-1.69,1-4.67-1.14-5.41-2.65a1.72,1.72,0,0,1,2.33-2.33c8.39,4.17,14.46,11.32,21.12,17.68a64.7,64.7,0,0,0,23.58,15A147.94,147.94,0,0,0,542.51,233a210.25,210.25,0,0,0,21.64,2.66,234.92,234.92,0,0,0,30.94.39c2.19-.11,2.18,3.3,0,3.42a238.27,238.27,0,0,1-50.27-2.58,148.55,148.55,0,0,1-28.43-7.52,98.35,98.35,0,0,1-13.83-6.08,68.11,68.11,0,0,1-11.39-8.12c-7.81-6.79-14.19-15.38-23.64-20.08l2.34-2.33c.07.15,0,.06-.05,0a2.89,2.89,0,0,1,.24.25,5.75,5.75,0,0,0,.54.44,6.12,6.12,0,0,0,.69.43s.3.2.19.1-.06,0,0,0c.38.11.08.17-.89.18l-.61.62,0-.06-.23.86c-.09.69.5.69,0,.54a6,6,0,0,1-.81-.39c-.49-.22-1-.41-1.49-.63l2.51-1.93a4.72,4.72,0,0,0,.23,1l-3.35.45a2.18,2.18,0,0,0-.17-.51l3.35-.46c2,19.85,9.95,38.33,15.9,57.18a11.66,11.66,0,0,1,.76,3.5,12.71,12.71,0,0,1-.68,3.92c-.69,2.18-1.44,4.34-2.15,6.51q-1.89,5.81-3.73,11.62c-2.26,7.17-4.46,14.34-6.77,21.51q-4,12.39-8.35,24.63c-2.81,7.89-5.64,15.77-8.12,23.77a52.61,52.61,0,0,1-2.28,6.83,47.31,47.31,0,0,0-2.11,5.36,48.35,48.35,0,0,0-2.35,14.12,33.72,33.72,0,0,0,.1,3.76,3,3,0,0,0,.05.42,3,3,0,0,1,0,.3c0-.06-.05-.37,0,0,.09.62.19,1.25.3,1.86A42.54,42.54,0,0,0,454,389.6a23.18,23.18,0,0,0,6,7.83,31.12,31.12,0,0,0,8.57,5,54.85,54.85,0,0,0,24.52,3.2,65.77,65.77,0,0,0,7-1c2.15-.39,3.07,2.89.91,3.3Z"/><path class="cls-1" d="M666.09,237.84a221.73,221.73,0,0,0-5.89-37.47,194.54,194.54,0,0,0-9.27-28.13,206.27,206.27,0,0,0-14.68-28.84,71.47,71.47,0,0,0-7.22-10c-1.61-1.79-3.51-3.74-5.9-4.4a3.88,3.88,0,0,0-3,.42c-1.31.84-1.92,2.43-2.45,3.81a47.76,47.76,0,0,1-2.77,6.3,30.07,30.07,0,0,1-5.85,7.29c-.59.54-1.22,1.05-1.86,1.55a50.08,50.08,0,0,1-9.67-5.14c-2.7-1.75-5.35-3.57-8-5.46a11.31,11.31,0,0,0-3.65-1.92c-2.59-.67-4.62,1-5.93,3.06a29.7,29.7,0,0,0-3.08,7.05,33.36,33.36,0,0,0-1.48,7.67c-.19,2.67.14,5.32,0,8a7.49,7.49,0,0,1-2.73,5.63c-1.65,1.41-3.56,2.46-5.2,3.88a20.07,20.07,0,0,0-4.07,4.88c-4.37,7.3-4.34,16.31-6.64,24.31a28.47,28.47,0,0,1-2.26,5.62,27.45,27.45,0,0,1-4.25,5.58c-1.74,1.84-3.53,3.62-5.15,5.57a54.11,54.11,0,0,0-4.45,6.29,49.9,49.9,0,0,0-5.31,11.6,23.4,23.4,0,0,1,3.1.77,48.08,48.08,0,0,1,1.82-4.71,49.43,49.43,0,0,1,6.09-10.36c2.49-3.23,5.53-5.93,8.12-9.06,4.67-5.62,6.11-12.67,7.41-19.65,1.16-6.21,2.27-13.07,7-17.71,2.41-2.38,5.74-3.7,7.77-6.48,2.73-3.7,1.81-8.17,1.91-12.45a31.24,31.24,0,0,1,2.73-11.88c.61-1.36,1.32-3.47,2.73-4.25a1.91,1.91,0,0,1,1.85.09l.78.42.23.14.05,0c4.33,2.93,8.57,6,13.07,8.66a38.59,38.59,0,0,0,4.1,2.1c.87.37,1.76.72,2.66,1,1.08.37,1.77-.21,2.56-.81a34.18,34.18,0,0,0,7.78-8.74,47.4,47.4,0,0,0,3.6-7.79c.17-.42.34-.84.53-1.25.09-.18.19-.34.28-.51s.27-.37,0,0l.18-.24.11-.12h0a.12.12,0,0,0,0,0h.05l0,0a.75.75,0,0,0,.21,0h0l.2,0h.06l.13,0,.17,0a6.24,6.24,0,0,1,.68.35l.36.22c-.47-.28.06,0,.18.14a19.08,19.08,0,0,1,1.73,1.51c.31.32.62.63.92,1l.27.3c.19.21.37.43.56.65a91.91,91.91,0,0,1,9.3,14,206.08,206.08,0,0,1,15.55,34.19c5.84,16.75,8.08,32.45,9.49,41.35,1.44,9.15,2.57,19,3.48,18.9C665.75,244.82,666,241.09,666.09,237.84Z"/><path class="cls-2" d="M614.65,101.87c-.12.12-.08.06,0,0Z"/><path class="cls-1" d="M570.2,200.66V200c0-.22,0,.45,0,0a1.33,1.33,0,0,0,0-.4,10,10,0,0,1,.26-1.45.5.5,0,0,0,0-.16c0-.21,0,.24,0,.23a1.88,1.88,0,0,0,.12-.3c.08-.22.26-.43.32-.66,0,0-.26.35-.13.21s.05-.07.08-.11l.19-.23c.19-.23-.33.25-.08.08.09-.07.23-.14.31-.21-.14.13-.39.17-.09.07l.13,0c.15-.08-.24.05-.24.05l.31,0c.05,0,.29,0,0,0s0,0,.06,0h.06l.17.09c.19,0-.13-.09-.15-.11a2.34,2.34,0,0,0,.31.24l.15.13c.19.16-.21-.26-.06-.06a7.44,7.44,0,0,1,.52.73c.19.3-.11-.27,0,.06a4.43,4.43,0,0,1,.2.45,9.24,9.24,0,0,1,.29.89l.12.47c-.08-.37,0,.09,0,.22a14,14,0,0,1,.2,2.33l0,.24c0,.07,0,.39,0,.14s0,0,0,.07l-.06.32c-.07.42-.1.85-.19,1.27l1.23-1.46c-.49.17.28,0,0,0l-.42,0c.37-.09.37,0,.1,0l-.21,0c-.2,0-.14,0,.19.08a4.17,4.17,0,0,0-.67-.33q.4.27.15.09l-.17-.13a3.33,3.33,0,0,0-.28-.25c-.11-.08-.06-.05.15.16l-.14-.16c-.09-.12-.16-.24-.24-.36-.22-.31.16.4,0,.06l-.15-.4c-.12-.3.06.49,0,0a1.62,1.62,0,0,0,0-.31c0-.32-.09.5,0,0s-.13.31,0,0a1.92,1.92,0,0,0-3.46-1.66h0a5.2,5.2,0,0,0,2,6.15,5,5,0,0,0,3.47,1,4,4,0,0,0,1-.21,2,2,0,0,0,1.36-1.65,12.73,12.73,0,0,0,.24-2.3,15.61,15.61,0,0,0-.4-4,9.19,9.19,0,0,0-1.48-3.39,5,5,0,0,0-3.43-2.17,4.39,4.39,0,0,0-3.54,1.26c-1.66,1.61-2,4.33-1.88,6.49a1.92,1.92,0,0,0,2.08,1.74,2,2,0,0,0,1.74-2.08Z"/><path class="cls-1" d="M533,233.92a44.42,44.42,0,0,1,14.3-1.1l-.37-2.8s-.46.08-.3.08-.24-.06-.26-.07a3.8,3.8,0,0,1-.57-.42c-.6-.53-1.14-1.14-1.71-1.71a8,8,0,0,0-4.85-2.18,19,19,0,0,0-5.37.34,4.64,4.64,0,0,0-2.42.94,2.65,2.65,0,0,0-.71,2.85,27.41,27.41,0,0,0,1.22,3,13.7,13.7,0,0,0,1.24,2.76c1.54,2.18,4,.92,5.91.08,1-.45,2-.91,3-1.41a13.07,13.07,0,0,0,2.63-1.53,2.59,2.59,0,0,0,1-2.44,3.27,3.27,0,0,0-2-2.23,14.12,14.12,0,0,0-12.59.36,1.44,1.44,0,0,0,.34,2.61,9.59,9.59,0,0,0,8.55-1.37l-1.71-2.24a19,19,0,0,0-2.8,4.18l1.23-.71h-.06c.14,0,.11.06,0,0a.19.19,0,0,1,.11.12c-.06-.09-.1-.17-.15-.26.08.17,0-.25,0-.25,0,.26.09-.42,0-.17.13-.5,1-.85,1.71-1a31.74,31.74,0,0,1,7.66-.64l-1.23-.7a1,1,0,0,1,.13.91,2.28,2.28,0,0,1-.57,1,5.87,5.87,0,0,1-3.24,1.26c-2.48.46-5.09,1-6.52,3.3-1,1.57,1.5,3,2.46,1.44,1.11-1.81,3.93-1.75,5.75-2.18,2.33-.57,4.56-2,5-4.56.2-1.26-.17-3.24-1.74-3.36a25.62,25.62,0,0,0-4.29.16c-2.28.21-5.42.29-7,2.22s-.73,5.7,2.16,5.52a1.44,1.44,0,0,0,1.23-.71,16.34,16.34,0,0,1,2.35-3.59,1.42,1.42,0,0,0-1.72-2.24,6.93,6.93,0,0,1-6.38,1.1l.34,2.61a11.16,11.16,0,0,1,8.21-.9,8.57,8.57,0,0,1,1.8.69l.32.17c.26.12,0,.17.07,0v-.22c.12-.19.13-.23,0-.11a2.43,2.43,0,0,0-.32.24A38.79,38.79,0,0,1,538,233a12.85,12.85,0,0,1-2.21.91c-.18,0-.32,0-.27.07-.19-.13-.31-.57-.4-.8l-1-2.41c-.15-.34-.29-.67-.42-1-.08-.19-.17-.38-.24-.57a1.8,1.8,0,0,1-.1-.33.26.26,0,0,1-.09.27s1.14-.3,1.3-.32c.66-.11,1.34-.21,2-.27a9,9,0,0,1,3.83.34c2.58.94,3.9,5,7.19,3.9a1.43,1.43,0,0,0-.38-2.8,47.4,47.4,0,0,0-15.06,1.2c-1.79.44-1,3.18.75,2.75Z"/></svg>