<svg id="Layer_1" data-name="Layer 1" xmlns="http://www.w3.org/2000/svg" viewBox="0 0 59.02 45.78"><defs><style>.cls-1{fill:#936f6f;}</style></defs><g id="jXFI5D"><path class="cls-1" d="M66.89,43.6c-.07-4.1,0-14.63,0-28.85A4.29,4.29,0,0,0,65.59,12c-1.19-1.09-2.77-.89-5.24-.83-5.05.13-7.57.2-9-.88C49.48,8.86,50.19,7.11,47.61,5a10.3,10.3,0,0,0-3.27-1.71c-2.5-.84-3.39-.22-8.53-.26-3.58,0-4.42-.33-6.1.37a9.51,9.51,0,0,0-3.16,2.21c-1.8,1.9-1.3,2.94-2.52,4.16-1.56,1.56-4,1.52-9,1.43-3.21-.05-5-.43-6.18.78a3.87,3.87,0,0,0-1,2.48Q8,29.45,8,44.4A3.46,3.46,0,0,0,9,47.76a3.54,3.54,0,0,0,2.71.89l50.81-.21a3.9,3.9,0,0,0,3-.46C67,46.89,66.91,44.54,66.89,43.6ZM48.63,35.79c-.83,0-1.54-1.21-2.12-2.69a9.62,9.62,0,0,1-16.14,0c-.58,1.48-1.29,2.67-2.13,2.69-1.65,0-3.94-4.56-3.12-8.7s4.64-6.42,5.36-6.81l2.18-.36v.24a9.57,9.57,0,0,1,11.55,0,2,2,0,0,0,0-.24l2.18.36c.72.39,4.52,2.55,5.36,6.81S50.29,35.82,48.63,35.79Z" transform="translate(-7.87 -2.88)"/><path class="cls-1" d="M36.53,31.53c.37-.9,2.86-.93,3.26-.06.26.58-.36,1.68-1.62,2.47C36.9,33.2,36.28,32.12,36.53,31.53Z" transform="translate(-7.87 -2.88)"/><circle class="cls-1" cx="26.4" cy="24.04" r="1.2"/><path class="cls-1" d="M41.48,24.62a2.3,2.3,0,1,0,2.31,2.3A2.3,2.3,0,0,0,41.48,24.62Zm0,3.5a1.2,1.2,0,1,1,1.2-1.2A1.2,1.2,0,0,1,41.48,28.12Z" transform="translate(-7.87 -2.88)"/></g></svg>