<svg id="Layer_1" data-name="Layer 1" xmlns="http://www.w3.org/2000/svg" viewBox="0 0 100.41 98.91"><path d="M117.08,112.61c8.16,7.45,25.53,27.15,18.53,39.24-3.8,6.54-14.16,9.88-21.8,7.63-8.59-2.54-8.23-10.5-15.26-12-11.07-2.34-18.24,16-30.52,14.17-6.64-1-11.29-7.41-13.08-12-5.31-13.61,8-28.24,13.08-33.79,5.61-6.17,14-15.4,26.16-15.26C104.06,100.73,110.91,107,117.08,112.61Z" transform="translate(-44.51 -62.88)"/><path d="M45.65,104.56c2.76,5.68,9.24,7.66,13.48,5.36,4.6-2.49,5.09-9.22,2.93-13.58s-7.48-7.8-12.1-6C45.5,92.18,42.87,98.61,45.65,104.56Z" transform="translate(-44.51 -62.88)"/><path d="M66,78.94c1.21,8.34,8.59,13.61,14.89,12.52,6.82-1.19,10.15-9.47,9.17-15.9-1-6.24-6.32-13-12.9-12.67C70.81,63.25,64.9,70.23,66,78.94Z" transform="translate(-44.51 -62.88)"/><path d="M127.33,95.45c-3.09,5.51-1,12,3.3,14.13,4.67,2.35,10.47-1.09,12.82-5.35s2.13-10.6-2-13.33S130.63,89.77,127.33,95.45Z" transform="translate(-44.51 -62.88)"/><path d="M122.54,80c-1.67,8.08-9.22,12.74-15.32,11.24-6.61-1.62-9.37-9.94-8-16.16,1.3-6,7-12.32,13.37-11.52C118.78,64.32,124.16,71.55,122.54,80Z" transform="translate(-44.51 -62.88)"/></svg>