<svg id="Layer_1" data-name="Layer 1" xmlns="http://www.w3.org/2000/svg" viewBox="0 0 909.46 553.49"><defs><style>.cls-1,.cls-4,.cls-5{fill:none;stroke:#29274c;stroke-miterlimit:10;}.cls-1{stroke-width:5px;}.cls-2{fill:#29274c;}.cls-3{fill:#c0a49f;}.cls-4{stroke-width:3px;}.cls-5{stroke-width:4px;}</style></defs><path class="cls-1" d="M200.5,362.5c48.55-42.13,45.45-72,44-80-2.5-13.83-12.67-27.22-33-54-22.12-29.13-28-29.33-31-43-3.26-14.68,3.16-30.45,16-62,.87-2.13,2.69-6.44,6-7s7.33,3,9,6c7,12.72-19.46,29-16,51,.46,2.93,1.43,5.84,14,22,19.06,24.51,23.23,26,32,38,7.69,10.5,26.65,37.12,24,70a80.07,80.07,0,0,1-5,22c8.17.45,70.22-4,77-5,17.7-2.59,44.21-1.07,82,18a32.05,32.05,0,0,0,11-12c3.95-7.77,3.73-16.29-1-37-6.13-26.81-11-35.6-8-38,2.38-1.88,9.56.18,32,20l32-1a144.8,144.8,0,0,0,25-14c6-4.22,9.06-7,11-6,2.49,1.28,3.11,8.74-6,37,.75,4.85,1.8,11.73,3,20,3.82,26.35,3.6,28.59,3,31-1.88,7.59-5.91,10.35-25,29-5.07,5-16.8,16.41-21,21-25.51,27.85-21.9,72.89-20,99a223.51,223.51,0,0,0,8,45c2.67,2,12.75,9.75,11,15-1.9,5.7-17.24,6.78-25,4-27.23-9.74-22.63-88.9-20-120-13.23.29-20.27,4.67-24,8-18.31,16.34-15.07,59,13,104,3,6.53,1.67,9.81,1,11-3.79,6.74-19.31,6.32-29,0-7.22-4.71-10.32-12.12-12-17-10.29-30-6.93-81.42-6-94-33.55,14.32-56.84,12.46-72,8-19.05-5.6-26.14-15.56-39-12-19.11,5.29-28.19,34.18-30,52-2.14,21,6,39,6,39,8.49,17,17.9,24.92,15,30s-18.44,5.6-29-1c-30.09-18.82-7.11-86.73-23-92-12.56-4.17-43.41,32.82-36,53,2,5.51,8.42,13.92,13,30,.91,3.2,1.61,6.2.07,8.55-3.71,5.66-18.68,4.74-26.07.45-23.51-13.63-13.54-86.19,11-139A241.84,241.84,0,0,1,200.5,362.5Z" transform="translate(-135.65 -13.42)"/><path class="cls-1" d="M453.5,305.5c.62-2.21,3.73-3.36,6-3,3.19.5,5.92,4.14,6,9-.56.26-4.38,1.93-8,0C455.61,310.49,452.8,308,453.5,305.5Z" transform="translate(-135.65 -13.42)"/><path class="cls-1" d="M504.42,305.66c-.62-2.2-3.73-3.35-6-3-3.19.5-5.92,4.15-6,9,.56.26,4.38,1.94,8,0C502.3,310.66,505.11,308.14,504.42,305.66Z" transform="translate(-135.65 -13.42)"/><path class="cls-2" d="M704.41,358a538.64,538.64,0,0,1-11.56,64.28c-2.81,11.51-5.85,22.91-7.91,34.6-1.7,9.66-3,19.4-4,29.16-.64,6.06-1.23,12.14-1.62,18.22a61.11,61.11,0,0,0,.76,16.32,26.31,26.31,0,0,0,7.3,13.85,24.12,24.12,0,0,0,13.08,6.18c10.49,1.51,20.43-3,27.54-10.65a53,53,0,0,0,8.51-12.46c2.21-4.42,4.11-9.09,7.07-13.08,2.6-3.5,6.73-6.95,11.37-5.73s7.89,5.62,10.14,9.67a158.39,158.39,0,0,1,7.64,16.59c2.17,5.26,4.07,10.88,6.95,15.8,4.24,7.22,11.81,11.67,20,12.9a42.36,42.36,0,0,0,24.58-3.82c8.63-4.16,14.73-11.44,18.19-20.27s4.28-18.1,6.08-27.19c1-5,2.24-10,4.72-14.5A24,24,0,0,1,864,477.69c9.16-4.42,20.63-4.45,30.39-2.35a62.67,62.67,0,0,1,27.86,14A57,57,0,0,1,940,516.94c2.48,9.06,2.89,19.4,10.21,26.19a26.56,26.56,0,0,0,13.09,6.36c3.14.62,4.49-4.2,1.33-4.82a21.4,21.4,0,0,1-12.29-6.51c-2.7-3-3.91-7-4.84-10.87-1.23-5.21-2.1-10.52-3.91-15.58a59.79,59.79,0,0,0-8-15.2c-12.7-17.35-33.84-28.17-55.43-27.38-10.5.38-21.77,3.46-28.51,12.06-6.35,8.11-7.82,18.57-9.52,28.43-1.52,8.81-3.12,18-8.22,25.57-4.74,7-12.41,11.34-20.57,13.09-7.34,1.58-15.56,1.1-22.12-2.81a20.65,20.65,0,0,1-7.67-8c-2.7-5-4.62-10.5-6.8-15.74a146.94,146.94,0,0,0-7.86-16.76c-2.53-4.44-6.13-8.55-11-10.52-5.26-2.14-10.59-.5-14.77,3.08-3.7,3.17-6.16,7.56-8.29,11.88s-4.18,8.86-7,12.88a35.75,35.75,0,0,1-10.61,10.07c-7.72,4.6-18.62,5.26-25.75-.92-8.15-7.06-7.78-19.14-7.05-28.95.82-11.15,2-22.29,3.59-33.36a343.07,343.07,0,0,1,7.59-37.29,538.63,538.63,0,0,0,11.33-55.38q1.38-9.21,2.48-18.45a2.51,2.51,0,0,0-2.5-2.5,2.57,2.57,0,0,0-2.5,2.5Z" transform="translate(-135.65 -13.42)"/><path class="cls-2" d="M963.31,549.49c13.55,2.53,27.65,2.75,41.11-.53,10.29-2.51,20.77-7.22,28-15.23s10.77-19.41,12.21-30c1.57-11.45-.67-23.8-4.85-34.48-1.13-2.9-2.51-5.63-3.41-8.61q-1.65-5.52-3.41-11-2.85-8.87-6-17.65c-4.5-12.72-9.11-25.39-13.36-38.2-7.6-22.89-14.42-46-22-68.92a39.83,39.83,0,0,1-1.53-5.1,10.8,10.8,0,0,1,.68-5.59c1.19-3.78,2.44-7.55,3.7-11.3,2.42-7.17,4.93-14.3,7.34-21.46,4.82-14.33,9.25-28.85,11.72-43.79q.91-5.61,1.49-11.28a2.47,2.47,0,0,0-2.17-2.45,2.54,2.54,0,0,0-2.74,1.79,6.37,6.37,0,0,0-.44,2.12,2.46,2.46,0,0,0,2.17,2.45,2.53,2.53,0,0,0,2.74-1.79,7.13,7.13,0,0,0,.35-1.45,2.54,2.54,0,0,0-3.67-2.82,7.48,7.48,0,0,0-.77.31l-1.3.55a9.24,9.24,0,0,0-2.49,1.44c-1.51,1.32-2.16,3.85-.07,5.07,2.51,1.46,6.95-1.72,8-4a2.52,2.52,0,0,0-3.42-3.42c-12.63,6.27-21.79,17.05-31.81,26.63a112,112,0,0,1-16.09,13,110.83,110.83,0,0,1-19.49,9.66,224.05,224.05,0,0,1-43.07,12.43,322.08,322.08,0,0,1-32.63,4,354,354,0,0,1-46.63.58c-3.22-.17-3.21,4.83,0,5a357.58,357.58,0,0,0,75.74-3.88,223.41,223.41,0,0,0,42.87-11.3A149.68,149.68,0,0,0,961,271.1a104.24,104.24,0,0,0,17.15-12.28c11.78-10.24,21.4-23.2,35.65-30.29l-3.42-3.42c-.11.22-.08.12.06,0-.13.1-.23.26-.36.38a7.71,7.71,0,0,1-.84.67,10.59,10.59,0,0,1-1.07.66c-.06,0-.46.28-.31.16s.1-.05,0,0c-.88.25-.17.61,2.14,1.08l.34,1.27c.14,1.07-.72.93,0,.75a8.68,8.68,0,0,0,1.22-.61c.75-.32,1.51-.6,2.25-.94l-3.67-2.82a7.13,7.13,0,0,1-.35,1.45l4.91.67a2.72,2.72,0,0,1,.26-.79l-4.91-.67c-3,29.93-15,57.79-24,86.21a18.06,18.06,0,0,0-1.13,5.27,19,19,0,0,0,1.06,5.87c1,3.29,2.17,6.55,3.24,9.82q2.85,8.76,5.62,17.54c3.4,10.81,6.73,21.64,10.2,32.43q6,18.67,12.59,37.13c4.25,11.89,8.5,23.76,12.24,35.83a79.72,79.72,0,0,0,3.44,10.26,69.35,69.35,0,0,1,3.17,8.1,72.73,72.73,0,0,1,3.55,21.29,51,51,0,0,1-.14,5.67c0,.21,0,.43-.07.64l-.06.45c0-.1.07-.53,0,0-.13.94-.28,1.87-.45,2.81a64,64,0,0,1-5.11,16.27,34.9,34.9,0,0,1-9,11.83,47.3,47.3,0,0,1-12.94,7.5c-11.69,4.62-24.53,5.82-37,4.82a101.07,101.07,0,0,1-10.56-1.42c-3.15-.59-4.5,4.23-1.33,4.82Z" transform="translate(-135.65 -13.42)"/><path class="cls-2" d="M822.42,293a356.19,356.19,0,0,0-20.61-57.18,312.81,312.81,0,0,0-23.13-41.5A331,331,0,0,0,747,153.51a115.75,115.75,0,0,0-14.58-13.77c-3.06-2.34-6.66-4.87-10.62-5.21a6.11,6.11,0,0,0-4.62,1.45c-1.81,1.64-2.32,4.23-2.74,6.52A83,83,0,0,1,712,153.19a48.06,48.06,0,0,1-7,13.48,49.87,49.87,0,0,1-3.48,4.19l2.43-.64c-6.85-1-13.21-3.36-19.59-6-4.67-1.91-9.28-3.93-13.88-6-2.93-1.32-6.25-2.31-9.31-.79-3.48,1.72-4.77,5.91-5.71,9.39a56.41,56.41,0,0,0-.58,26.78c.89,4,2.42,8.4,1.13,12.51-1,3.26-3.74,5.73-6.06,8.1a35.88,35.88,0,0,0-6.5,8.65,36.6,36.6,0,0,0-3.25,9.72c-2.7,14.1.82,28.84-3,42.76-2.22,8-7.72,14.35-11.67,21.5a84.88,84.88,0,0,0-8.93,24.27c-2.8,14-2.71,32.51,11.88,40,5.37,2.76,11.42,3.7,17.35,4.46a108.56,108.56,0,0,0,14.31.89,131.85,131.85,0,0,0,45.62-8.65,161,161,0,0,0,31.82-16.19,203.4,203.4,0,0,0,34.25-28.53q4.66-4.81,9.05-9.89a2.56,2.56,0,0,0,0-3.53,2.54,2.54,0,0,0-3.54,0c-14.92,17.2-32.26,32.47-52.17,43.64-19.3,10.83-41.12,17.75-63.35,18.14a109.64,109.64,0,0,1-12.42-.48c-.8-.07-1.59-.16-2.38-.25l-1-.12-.58-.08h-.07c-1.55-.22-3.11-.45-4.65-.74-5.72-1.05-11.48-2.84-15.39-7.39-3.39-4-4.78-9.39-5.14-14.47a60.3,60.3,0,0,1,1.69-17.65,80.18,80.18,0,0,1,6.81-18.75c3.11-6.05,7.39-11.41,10.45-17.48a46.94,46.94,0,0,0,4.53-16.92c1.05-11.13-.75-22.54,1.45-33.56a28.62,28.62,0,0,1,6.46-13.75c4.08-4.58,9-8.51,9.81-15,.42-3.45-.34-6.91-1.13-10.26a59.13,59.13,0,0,1-1.62-10.25,50.21,50.21,0,0,1,.44-10.32,40.35,40.35,0,0,1,2.35-9.37,6.18,6.18,0,0,1,1.57-2.44c1.15-.93,2.68-.46,3.94,0,0,0,1.32.49.64.21l0,0,.32.14,1.52.69q6.25,2.79,12.59,5.43a109.18,109.18,0,0,0,14.13,5.09c1.38.36,2.77.66,4.18.92a17.4,17.4,0,0,0,2.95.46,3,3,0,0,0,2.28-1.29,57.62,57.62,0,0,0,5.35-7,51.84,51.84,0,0,0,7.21-17.24c.46-2.07.77-4.17,1.17-6.25a21.35,21.35,0,0,1,.51-2.24c.08-.29.18-.57.28-.85-.24.67.2-.32.32-.53s.29-.26-.13.16a1.64,1.64,0,0,1,.29-.3c.41-.27-.44.4-.07.06a1,1,0,0,1,.22-.13c.37-.17-.73.16-.11.05a2.8,2.8,0,0,0,.5-.12c-.06,0-.67,0,0,0a3.81,3.81,0,0,0,.48,0c.72,0-.51-.14,0,0l.66.14c.44.12.86.3,1.3.44s-.55-.27-.09,0l.26.12.94.46a32.29,32.29,0,0,1,3.27,2,39.56,39.56,0,0,1,3.61,2.79c1.52,1.28,3,2.62,4.44,4,3.51,3.34,6.82,6.88,10,10.5A320.72,320.72,0,0,1,811.8,274.8q3.16,9.68,5.8,19.51c.84,3.11,5.66,1.79,4.82-1.33Z" transform="translate(-135.65 -13.42)"/><path class="cls-2" d="M715.1,256.12c-.07-.28-.11-.57-.17-.86s.06.57,0,0c0-.18,0-.36,0-.53a12,12,0,0,1,0-2,1.64,1.64,0,0,0,0-.22c0-.27,0,.31,0,.3a3,3,0,0,0,.08-.43,8.78,8.78,0,0,0,.27-.93s-.25.5-.12.29l.09-.18c.06-.11.13-.22.19-.34.19-.35-.36.39-.08.11a4.08,4.08,0,0,0,.36-.36c-.14.21-.45.31-.09.11.05,0,.12-.06.17-.1s-.28.12-.29.12a1.46,1.46,0,0,0,.39-.12c.07,0,.38-.07,0,0s0,0,.1,0,.48,0,.09,0-.09,0,0,0a1.68,1.68,0,0,0,.24.07c.25.05-.17-.07-.2-.1s.35.18.46.25l.23.14c.28.15-.32-.28-.08-.06a11.36,11.36,0,0,1,.86.84c.32.35-.2-.3.07.09.13.17.25.35.37.54a11.79,11.79,0,0,1,.59,1.11c.1.2.19.39.27.59-.18-.43.06.16.11.31a18.57,18.57,0,0,1,.82,3c0,.11,0,.21.05.32s.07.51,0,.2,0,.06,0,.1,0,.29,0,.43c.05.58.06,1.16.06,1.73l1.23-2.15-.25.13.2-.08a3.16,3.16,0,0,0-.55.13c.42-.19.47,0,.11,0h-.28c-.27,0-.19,0,.25.05a4.74,4.74,0,0,0-1-.27c.37.17.44.19.2.08l-.26-.13c-.14-.09-.28-.2-.43-.28s-.08,0,.22.18l-.22-.19c-.15-.13-.27-.27-.41-.41-.35-.35.3.47,0,.05l-.3-.48c-.22-.36.19.59,0-.05,0-.14-.06-.27-.1-.41-.1-.41,0,.65,0,0s-.09.39,0-.05a2.5,2.5,0,1,0-4.82-1.33,6.9,6.9,0,0,0,4,7.57,6.68,6.68,0,0,0,4.75.45,7.31,7.31,0,0,0,1.19-.5,2.66,2.66,0,0,0,1.37-2.45,19.27,19.27,0,0,0-.24-3,19.89,19.89,0,0,0-1.48-5.19A11.9,11.9,0,0,0,720.5,248a6.63,6.63,0,0,0-5-2,5.82,5.82,0,0,0-4.32,2.48c-1.79,2.5-1.52,6.12-.93,9a2.52,2.52,0,0,0,3.08,1.75,2.58,2.58,0,0,0,1.75-3.08Z" transform="translate(-135.65 -13.42)"/><path class="cls-2" d="M650.72,268.87l.11-4.14-2.5,2.5c.51,0-.55-.11-.09,0l.43.08c.28.07.56.15.83.24a2.86,2.86,0,0,0,.41.15c-.64-.14-.28-.12-.08,0s.51.27.76.42l.36.24.24.17-.28-.22a7.3,7.3,0,0,0,.66.57q.31.3.6.63a1.81,1.81,0,0,0,.28.33l-.12-.15.12.17a10.86,10.86,0,0,1,.87,1.52c.25.49-.09-.3,0-.07s.11.27.15.41.17.55.24.83.05.29.08.43c.13.55,0-.35,0-.1s0,.57,0,.86,0,.58,0,.86.14-.64,0-.09c0,.17-.07.34-.11.5l1.15-1.49c-.44.2.54-.18.11-.05l-.37.11c-.12,0-.26,0-.38.08.55-.19.47-.05.17,0a6.4,6.4,0,0,1-.76,0c-.47,0,.63.13.16,0l-.37-.08-.36-.12c-.2-.06-.53-.28.11.07-.21-.11-.43-.2-.64-.32s-.43-.29-.65-.43.48.43.09.06l-.29-.26a6.26,6.26,0,0,1-.5-.53c-.06-.06-.11-.13-.17-.2l.23.3a2.37,2.37,0,0,0-.22-.33,5.51,5.51,0,0,1-.38-.67c-.13-.26-.07-.44,0,.12,0-.11-.09-.24-.12-.36s-.09-.51-.18-.74c.08.2.06.63,0,.16,0-.12,0-.25,0-.37s0-.26,0-.38c0,.14-.13.63,0,.22a5.83,5.83,0,0,1,.25-.81,2.52,2.52,0,0,0-1.75-3.08,2.58,2.58,0,0,0-3.08,1.75,7.61,7.61,0,0,0,1.05,7,9.31,9.31,0,0,0,6.49,4,7.08,7.08,0,0,0,3.76-.65c1.62-.72,1.79-3,1.71-4.56a12.08,12.08,0,0,0-2.91-7.18,11.12,11.12,0,0,0-7.56-3.93,2.53,2.53,0,0,0-2.5,2.5l-.11,4.14a2.51,2.51,0,0,0,2.5,2.5,2.55,2.55,0,0,0,2.5-2.5Z" transform="translate(-135.65 -13.42)"/><path class="cls-2" d="M634,338a81.28,81.28,0,0,1,25.87-2l-.67-4.91s-.82.16-.51.15c-.47,0,0,.08-.46-.1a8,8,0,0,1-1-.69c-1.16-1-2.11-2.18-3.19-3.24a14.43,14.43,0,0,0-8.73-3.91,34.92,34.92,0,0,0-9.67.62,8.39,8.39,0,0,0-4.32,1.67,4.84,4.84,0,0,0-1.13,5.47c.61,1.69,1.37,3.33,2.06,5,.75,1.81,1.33,4,2.63,5.47,2.91,3.36,7.32.89,10.53-.54,1.59-.72,3.16-1.46,4.72-2.24a24.41,24.41,0,0,0,5-2.91,4.63,4.63,0,0,0,1.67-4.65,6.07,6.07,0,0,0-3.57-3.66,25.34,25.34,0,0,0-22.67.65c-2,1.06-1.37,3.94.6,4.57a17.29,17.29,0,0,0,15.35-2.47l-3-3.93a34.45,34.45,0,0,0-5,7.53l2.16-1.24c-.32,0-.36,0-.12,0s.18.09-.08-.06a.24.24,0,0,1,.18.18,4.39,4.39,0,0,1-.27-.47c.16.38-.09-.66-.07-.4s.14-.8,0-.41c.27-1,2.09-1.63,3.27-1.9a58.3,58.3,0,0,1,13.64-1.11l-2.16-1.24c.69,1.11.21,2.46-.75,3.52-1.46,1.61-3.93,2-6,2.38-4.46.82-9.18,1.75-11.74,5.93-1.68,2.75,2.64,5.27,4.32,2.52,2-3.23,6.95-3.18,10.22-3.93,4.31-1,8.5-3.6,9.16-8.32.29-2.08-.29-5.39-2.76-5.81a18.4,18.4,0,0,0-3.71,0c-1.36,0-2.73.12-4.09.23-4.16.35-9.83.47-12.84,3.87a6.33,6.33,0,0,0-1.28,6.23,5.15,5.15,0,0,0,5,3.76,2.49,2.49,0,0,0,2.16-1.24,29.62,29.62,0,0,1,4.27-6.51,2.54,2.54,0,0,0,.2-3.29,2.49,2.49,0,0,0-3.23-.64,12.57,12.57,0,0,1-11.51,2l.6,4.57a20.26,20.26,0,0,1,15-1.6,15.84,15.84,0,0,1,3.33,1.29c.11.06.55.36.6.33s-.09-.8.12-.67-.52.45-.55.48a30.63,30.63,0,0,1-4,2.11q-2.13,1.07-4.29,2c-1.19.54-2.38,1.12-3.62,1.54-.27.09-.55.15-.83.24s-.42-.19-.16.06a3.62,3.62,0,0,1-.65-1.19c-.6-1.39-1.16-2.82-1.75-4.23-.32-.76-.63-1.52-1-2.29-.12-.28-.24-.57-.35-.86,0-.14-.41-.82-.23-.72l-.16.32c-.06,0,0,0,.13-.07-.11,0,.83-.27.49-.17a14.3,14.3,0,0,1,1.73-.34c1.18-.2,2.37-.38,3.56-.48a17.12,17.12,0,0,1,7,.57c4.7,1.6,7.07,9.16,13,7.07a2.51,2.51,0,0,0-.66-4.91,85.57,85.57,0,0,0-27.2,2.17c-3.12.76-1.8,5.58,1.33,4.82Z" transform="translate(-135.65 -13.42)"/><path class="cls-3" d="M489.67,335.52a50.63,50.63,0,0,0-3.56-4.76c-1.45-1.7-2.36-2.55-2.09-3.24.07-.16.29-.85,3.8-.83l6.48,0a4.16,4.16,0,0,1,1.79.27,1.44,1.44,0,0,1,.89,1.45,2,2,0,0,1-.8,1.14c-1.79,1.43-1.34,2.22-3.22,3.9A11.46,11.46,0,0,1,489.67,335.52Z" transform="translate(-135.65 -13.42)"/><path d="M490.65,335a75.13,75.13,0,0,0-5-6.47c-.22-.27-.37-.55-.56-.83.1.16,0,.05,0,0s0,.19,0,.26c0-.27-.1.2-.05.11s-.2.23-.09.12,0,0,0,0l-.08.06.06,0s.31-.16.11-.07.25-.07.32-.08a11.94,11.94,0,0,1,3-.19l4.24,0c.69,0,1.39,0,2.09,0,.25,0,1.16,0,1.22.38s-.51.57-.66.69a7.06,7.06,0,0,0-1.13,1.25,14.29,14.29,0,0,1-1.74,2.35,9.78,9.78,0,0,1-3,1.9,1.17,1.17,0,0,0-.78,1.39,1.13,1.13,0,0,0,1.38.78,13.63,13.63,0,0,0,3.58-2.13,11.7,11.7,0,0,0,2.24-2.81c.63-1,1.88-1.54,2.23-2.74.5-1.68-1-3-2.5-3.24a37.71,37.71,0,0,0-5.21-.1,35.79,35.79,0,0,0-4.63.09c-1.37.18-3.16.76-2.78,2.53.29,1.3,1.59,2.39,2.41,3.36a46.85,46.85,0,0,1,3.39,4.53C489.5,337.29,491.45,336.16,490.65,335Z" transform="translate(-135.65 -13.42)"/><path class="cls-1" d="M378,80.24c-3.81-12.79-1.48-25,6.06-30.73,1.24-.95,7-5.33,13.74-3.35,7.55,2.22,9.95,10.46,10.12,11.08a37.43,37.43,0,0,1,4.33-17.5c8.74-16.21,27.6-19.92,36.08-21.59,8.72-1.72,35.08-6.91,46,8.59,6.22,8.78,4.48,20,3.42,24.78,1.66-3.34,7.48-14,19.35-18,17.32-5.84,41.27,4.5,44.41,22.81,2,11.48-4.6,23.94-16,31.7,2.77-.18,18.25-1,29.94,10.42,12.41,12.07,15,32.45,5.82,47.39-9.8,15.91-28.18,17.83-30.4,18,5.19,8.3,4.1,13.79,3.54,15.73-3.9,13.41-29.91,20.78-43.22,10.22-6.07-4.82-8-12.14-8.61-16.24.37,2.77,1.8,15.75-6.64,24.76-11.22,12-33.46,10.07-45.37-1.62-9.86-9.69-9.68-23.2-9.57-26.2-.24,1.88-2.15,15.59-13.9,22.45-12.33,7.19-27.26,2-35.7-5.58-10.21-9.18-13.7-24.37-8.75-38.33a30.24,30.24,0,0,1-11.94,1.16c-11.77-1.28-24.23-10-26.12-20.57-2.13-12,9.31-26.75,9.44-27-9.69-1.15-17.51-7.3-19.56-15.18C331.41,75.56,342,62,355.09,61.37,365.48,60.88,375.53,68.72,378,80.24Z" transform="translate(-135.65 -13.42)"/><circle class="cls-1" cx="471.85" cy="148.08" r="12.5"/><circle class="cls-4" cx="498.85" cy="199.08" r="6"/><circle class="cls-5" cx="490.35" cy="176.58" r="8.5"/></svg>