<?xml version="1.0" encoding="utf-8"?>
<!-- Generator: Adobe Illustrator 26.0.1, SVG Export Plug-In . SVG Version: 6.00 Build 0)  -->
<svg version="1.1" id="Layer_1" xmlns="http://www.w3.org/2000/svg" xmlns:xlink="http://www.w3.org/1999/xlink" x="0px" y="0px"
	 viewBox="0 0 337.8 313.1" style="enable-background:new 0 0 337.8 313.1;" xml:space="preserve">
<style type="text/css">
	.st0{fill:#E3D7D2;}
	.st1{opacity:0.5;}
</style>
<path class="st0" d="M322,246.1c-0.8-2.1-1.8-4-2.4-6.1c-0.8-2.6-1.6-5.2-2.4-7.8c-1.4-4.2-2.8-8.4-4.2-12.6
	c-3.2-9.1-6.5-18.1-9.5-27.2c-5.4-16.3-10.3-32.8-15.7-49.2c-0.4-1.2-0.8-2.4-1.1-3.6c-0.2-1.3,0-2.7,0.5-4c0.9-2.7,1.7-5.4,2.6-8.1
	c1.7-5.1,3.5-10.2,5.2-15.3c3.4-10.2,6.6-20.6,8.4-31.2c0.4-2.4,0.7-4.9,1-7.3c0-0.1,0-0.1,0.1-0.2l0,0c0-0.2,0.1-0.4,0.1-0.6
	c0-0.7-0.4-1.3-1-1.6c0,0,0,0,0,0c-0.1,0-0.1-0.1-0.2-0.1c0,0-0.1,0-0.1,0c-0.5-0.2-1-0.1-1.5,0.1c-0.1,0-0.2,0.1-0.3,0.1l-0.3,0.1
	c-0.3,0.1-0.6,0.3-0.9,0.4c-0.6,0.3-1.2,0.6-1.8,1c-0.1,0.1-0.2,0.2-0.4,0.4c-7.2,4.6-12.9,11.1-19.1,17
	c-7.2,7.2-15.8,12.7-25.3,16.2c-9.9,4-20.2,6.9-30.7,8.9c-7.7,1.4-15.5,2.3-23.3,2.9c-10.9,0.9-21.8,1-32.6,0.4
	c-3.7-13.9-8.6-27.5-14.6-40.5c-4.8-10.3-10.3-20.2-16.5-29.6c-6.8-10.3-14.4-20.1-22.8-29.3c-3.1-3.5-6.6-6.7-10.3-9.6
	c-2.2-1.7-4.8-3.4-7.6-3.7c-1.2-0.1-2.4,0.3-3.3,1.1c-1.3,1.2-1.6,3.2-1.9,4.8c-0.4,2.6-1,5.2-1.8,7.7c-1.2,3.4-2.8,6.6-5,9.5
	c-0.6,0.7-1.2,1.5-1.8,2.2c-4.1-0.8-8.1-2-12-3.7c-3.4-1.4-6.8-2.9-10.2-4.4c-1.4-0.7-2.9-1.2-4.5-1.4c-3.1-0.2-5,2.1-6,4.7
	c-1,2.8-1.7,5.7-1.9,8.6c-0.3,3-0.3,6,0,9c0.4,3,1.3,6,1.7,9c0.4,2.5-0.2,5-1.8,6.9c-1.6,1.9-3.5,3.5-5,5.5
	c-1.5,1.9-2.7,4.1-3.5,6.4c-3.3,9.2-1.3,19.3-2.2,28.8c-0.2,2.3-0.6,4.6-1.3,6.8c-0.9,2.5-2.1,5-3.6,7.2c-1.6,2.5-3.2,4.8-4.6,7.4
	c-1.4,2.6-2.6,5.3-3.6,8c-2,5.3-3.3,10.8-3.7,16.5c-0.3,4.8,0.2,9.9,2.5,14.3c2.5,4.8,7.1,7.6,12.3,8.9c5.6,1.3,11.4,1.9,17.1,1.8
	c11.1-0.1,22-2.1,32.4-6c-0.4,0.3-0.7,0.8-0.7,1.4h0c-2.2,17-5.9,33.7-9.4,50.5c-3.5,16.8-6.9,33.7-8.3,50.8c-0.6,7-1,14.8,2.8,21.1
	c3.4,5.7,10,8.6,16.6,8.1c6.8-0.5,12.7-4.5,16.9-9.8c2-2.6,3.8-5.5,5.2-8.5c1.4-2.8,2.7-5.8,4.7-8.3c1.9-2.2,4.6-4.3,7.6-3.5
	s5.2,3.4,6.7,5.9c4,6.9,6.5,14.5,9.8,21.8c2.3,5.1,6.6,9,12,10.7c5.3,1.5,10.8,1.5,16.1,0c5.7-1.6,10.8-5,14.4-9.7
	c3.6-4.9,5.1-11,6.2-17c1.2-6.2,1.7-12.9,4.6-18.6c1.4-3,3.7-5.4,6.5-7.2c2.9-1.7,6.2-2.7,9.5-3.1c13.6-1.9,27.6,3.8,36.9,13.7
	c2.5,2.7,4.7,5.7,6.4,9c1.7,3.3,2.9,6.8,3.7,10.4c1.4,6,2.3,12.4,7.3,16.5c2.5,2,5.4,3.3,8.6,3.9c0,0,0,0,0.1,0
	c9.7,1.8,19.7,2,29.3-0.4c7.3-1.8,14.8-5.1,20-10.9c5.1-5.7,7.7-13.9,8.7-21.4C326.5,262.5,324.9,253.7,322,246.1z M321.9,269.3
	c0,0.1,0,0.3-0.1,0.4c0,0.1,0,0.2,0,0.3c-0.1,0.7-0.2,1.3-0.3,2c-0.7,4-1.9,7.9-3.7,11.5c-1.5,3.2-3.7,6.1-6.4,8.4
	c-2.8,2.3-5.9,4.1-9.2,5.3c-8.3,3.3-17.5,4.1-26.4,3.4c-2.5-0.2-5-0.5-7.5-1c0,0-0.1,0-0.1,0c-3-0.5-5.8-1.9-8-3.9
	c-1.8-1.9-3.1-4.3-3.7-6.8c-0.9-3.2-1.4-6.5-2.3-9.7c-1-3.6-2.5-7.1-4.4-10.4c-7.4-12.3-20-20.6-34.2-22.6
	c-6.9-0.9-14.2-0.5-20.6,2.4c-6.6,3-10.3,9-12.2,15.8c-3.1,11.2-2.2,25.3-12.3,33.2c-4.1,3.1-9.1,4.9-14.2,5.1
	c-4.8,0.3-10-0.7-13.7-3.9c-2-1.8-3.5-4.1-4.5-6.5c-1.7-3.7-3.1-7.4-4.7-11.1c-1.4-3.6-3.1-7-5-10.4c-1.7-2.9-4.2-5.5-7.3-6.9
	c-7.1-3-12.8,3.1-15.8,8.9c-1.5,2.8-2.7,5.8-4.3,8.5c-1.6,2.8-3.7,5.3-6.2,7.5c-4.7,4-11.1,5.9-17.1,3.8c-6.5-2.2-9-8.7-9.3-15
	c-0.1-3.6,0-7.2,0.4-10.8c0.4-4.2,0.8-8.4,1.4-12.6c1.2-8.4,2.7-16.8,4.4-25.1c3.3-16.6,7.2-33.2,10-49.9c0.7-4.2,1.3-8.3,1.8-12.5
	c0-1-0.8-1.8-1.8-1.8c0.2-0.1,0.4-0.1,0.5-0.2c10.5-4.1,20.4-9.7,29.4-16.5c7.1-5.3,13.7-11.4,19.6-18c1.1-1.3,2.2-2.6,3.3-3.9
	c0.7-0.7,0.7-1.9,0-2.6c-0.7-0.7-1.9-0.7-2.6,0c-9.1,11.2-20,20.8-32.3,28.3c-15.8,9.6-33.7,15.9-52.3,15.7c-4.6,0-9.2-0.5-13.7-1.3
	c-3.9-0.8-7.7-2.2-10.2-5.4c-4.8-6.1-3.8-15.3-2.2-22.4c1-4.5,2.6-8.9,4.6-13c2.1-4.2,4.9-7.9,7.2-11.9c4-7.3,4.1-15.6,4.1-23.7
	c0-7.2-0.3-15.2,4-21.4c2.2-3.2,5.7-5.4,7.3-9c2.3-4.8,0.3-9.6-0.6-14.4c-0.7-4.6-0.6-9.4,0.5-14c0.4-1.7,0.7-4.2,2.1-5.4
	c0.6-0.5,1.4-0.6,2.1-0.3c0.3,0.1,0.6,0.2,1,0.3c0,0,0.2,0.1,0.3,0.1l0.1,0c5.5,2.4,10.9,4.9,16.6,6.9c1.7,0.6,3.3,1.1,5.1,1.5
	c1.1,0.2,2.1,0.4,3.2,0.6c1.3,0.2,1.9-0.6,2.7-1.5c2.9-3.4,5.3-7.3,6.9-11.5c1.1-3.1,1.9-6.3,2.4-9.5c0.1-0.5,0.2-1,0.3-1.5
	c0.1-0.2,0.1-0.4,0.2-0.6c0-0.1,0.1-0.1,0.1-0.2c0,0,0,0,0,0.1l0.1-0.2c0,0,0-0.1,0-0.1c0,0,0,0,0,0c0,0,0,0,0-0.1c0,0,0,0,0,0
	c0,0,0,0,0-0.1c0,0,0,0,0.1,0c0,0,0,0,0.1,0c0.1,0,0.2,0,0.2-0.1c0.1,0,0.2,0,0.2,0h0.4c0.3,0.1,0.6,0.1,0.8,0.2l0.3,0.1
	c0.1,0.1,0.3,0.1,0.4,0.2c0.8,0.4,1.5,0.8,2.3,1.3c0.4,0.3,0.8,0.6,1.2,0.9l0.4,0.3c0.3,0.2,0.5,0.4,0.8,0.6
	c5,4.1,9.4,8.9,13.5,13.8c9.3,10.9,17.7,22.7,24.9,35.1c8.1,14.1,14.7,29,19.6,44.5c1.4,4.4,2.8,8.9,4,13.4c0.2,0.7,0.7,1.1,1.2,1.2
	c0.3,0.6,0.8,1.1,1.6,1.1c18.1,1,36.2,0.1,54-2.8c10.4-1.7,20.7-4.4,30.6-8.1c5.1-1.8,10.1-4,14.9-6.5c4.4-2.5,8.5-5.4,12.2-8.7
	c7.2-6.3,13.3-14,21.3-19.2c0.3,0,0.6,0,0.9-0.1c-2.7,19.9-10.6,38.6-16.6,57.7c-0.5,1.2-0.7,2.5-0.8,3.8c0,1.4,0.3,2.8,0.7,4.2
	c0.7,2.3,1.5,4.7,2.3,7c1.4,4.2,2.7,8.3,4,12.5c2.4,7.7,4.8,15.4,7.3,23.1c2.8,8.9,5.8,17.7,9,26.5c3,8.5,6.1,16.9,8.7,25.6
	c0.6,2.5,1.5,5,2.5,7.3c0.9,1.9,1.6,3.8,2.3,5.8c1.6,4.9,2.4,10,2.5,15.2C322.1,266.6,322,268,321.9,269.3z"/>
<path class="st1" d="M321.9,269.3c0,0.1,0,0.3-0.1,0.4c0,0.1,0,0.2,0,0.3c-0.1,0.7-0.2,1.3-0.3,2c-0.7,4-1.9,7.9-3.7,11.5
	c-1.5,3.2-3.7,6.1-6.4,8.4c-2.8,2.3-5.9,4.1-9.2,5.3c-8.3,3.3-17.5,4.1-26.4,3.4c-2.5-0.2-5-0.5-7.5-1c0,0-0.1,0-0.1,0
	c-3-0.5-5.8-1.9-8-3.9c-1.8-1.9-3.1-4.3-3.7-6.8c-0.9-3.2-1.4-6.5-2.3-9.7c-1-3.6-2.5-7.1-4.4-10.4c-7.4-12.3-20-20.6-34.2-22.6
	c-6.9-0.9-14.2-0.5-20.6,2.4c-6.6,3-10.3,9-12.2,15.8c-3.1,11.2-2.2,25.3-12.3,33.2c-4.1,3.1-9.1,4.9-14.2,5.1
	c-4.8,0.3-10-0.7-13.7-3.9c-2-1.8-3.5-4.1-4.5-6.5c-1.7-3.7-3.1-7.4-4.7-11.1c-1.4-3.6-3.1-7-5-10.4c-1.7-2.9-4.2-5.5-7.3-6.9
	c-7.1-3-12.8,3.1-15.8,8.9c-1.5,2.8-2.7,5.8-4.3,8.5c-1.6,2.8-3.7,5.3-6.2,7.5c-4.7,4-11.1,5.9-17.1,3.8c-6.5-2.2-9-8.7-9.3-15
	c-0.1-3.6,0-7.2,0.4-10.8c0.4-4.2,0.8-8.4,1.4-12.6c1.2-8.4,2.7-16.8,4.4-25.1c3.3-16.6,7.2-33.2,10-49.9c0.7-4.2,1.3-8.3,1.8-12.5
	c0-1-0.8-1.8-1.8-1.8c0.2-0.1,0.4-0.1,0.5-0.2c10.5-4.1,20.4-9.7,29.4-16.5c7.1-5.3,13.7-11.4,19.6-18c1.1-1.3,2.2-2.6,3.3-3.9
	c0.7-0.7,0.7-1.9,0-2.6c-0.7-0.7-1.9-0.7-2.6,0c-9.1,11.2-20,20.8-32.3,28.3c-15.8,9.6-33.7,15.9-52.3,15.7c-4.6,0-9.2-0.5-13.7-1.3
	c-3.9-0.8-7.7-2.2-10.2-5.4c-4.8-6.1-3.8-15.3-2.2-22.4c1-4.5,2.6-8.9,4.6-13c2.1-4.2,4.9-7.9,7.2-11.9c4-7.3,4.1-15.6,4.1-23.7
	c0-7.2-0.3-15.2,4-21.4c2.2-3.2,5.7-5.4,7.3-9c2.3-4.8,0.3-9.6-0.6-14.4c-0.7-4.6-0.6-9.4,0.5-14c0.4-1.7,0.7-4.2,2.1-5.4
	c0.6-0.5,1.4-0.6,2.1-0.3c0.3,0.1,0.6,0.2,1,0.3c0,0,0.2,0.1,0.3,0.1l0.1,0c5.5,2.4,10.9,4.9,16.6,6.9c1.7,0.6,3.3,1.1,5.1,1.5
	c1.1,0.2,2.1,0.4,3.2,0.6c1.3,0.2,1.9-0.6,2.7-1.5c2.9-3.4,5.3-7.3,6.9-11.5c1.1-3.1,1.9-6.3,2.4-9.5c0.1-0.5,0.2-1,0.3-1.5
	c0.1-0.2,0.1-0.4,0.2-0.6l0.1-0.1l0.1-0.2c0,0,0-0.1,0-0.1c0,0,0,0,0,0c0,0,0,0,0-0.1c0,0,0,0,0,0c0,0,0,0,0-0.1c0,0,0,0,0.1,0
	c0,0,0,0,0.1,0c0.1,0,0.2,0,0.2-0.1c0.1,0,0.2,0,0.2,0h0.4c0.3,0.1,0.6,0.1,0.8,0.2l0.3,0.1c0.1,0.1,0.3,0.1,0.4,0.2
	c0.8,0.4,1.5,0.8,2.3,1.3c0.4,0.3,0.8,0.6,1.2,0.9l0.4,0.3c0.3,0.2,0.5,0.4,0.8,0.6c5,4.1,9.4,8.9,13.5,13.8
	c9.3,10.9,17.7,22.7,24.9,35.1c8.1,14.1,14.7,29,19.6,44.5c1.4,4.4,2.8,8.9,4,13.4c0.2,0.7,0.7,1.1,1.2,1.2c0.3,0.6,0.8,1.1,1.6,1.1
	c18.1,1,36.2,0.1,54-2.8c10.4-1.7,20.7-4.4,30.6-8.1c5.1-1.8,10.1-4,14.9-6.5c4.4-2.5,8.5-5.4,12.2-8.7c7.2-6.3,13.3-14,21.3-19.2
	c0.3,0,0.6,0,0.9-0.1c-2.7,19.9-10.6,38.6-16.6,57.7c-0.5,1.2-0.7,2.5-0.8,3.8c0,1.4,0.3,2.8,0.7,4.2c0.7,2.3,1.5,4.7,2.3,7
	c1.4,4.2,2.7,8.3,4,12.5c2.4,7.7,4.8,15.4,7.3,23.1c2.8,8.9,5.8,17.7,9,26.5c3,8.5,6.1,16.9,8.7,25.6c0.6,2.5,1.5,5,2.5,7.3
	c0.9,1.9,1.6,3.8,2.3,5.8c1.6,4.9,2.4,10,2.5,15.2C322.1,266.6,322,268,321.9,269.3z"/>
<path class="st0" d="M90.4,91.2c0-0.2-0.1-0.4-0.1-0.6c0-0.2,0,0.4,0,0c0-0.1,0-0.3,0-0.4c0-0.5,0-0.9,0-1.4c0-0.1,0-0.1,0-0.2
	c0-0.2,0,0.2,0,0.2c0-0.1,0-0.2,0.1-0.3c0-0.2,0.2-0.4,0.2-0.7c0,0-0.2,0.4-0.1,0.2c0,0,0-0.1,0.1-0.1l0.1-0.2
	c0.1-0.2-0.3,0.3-0.1,0.1c0.1-0.1,0.2-0.2,0.3-0.2c-0.1,0.1-0.3,0.2-0.1,0.1c0,0,0.1,0,0.1-0.1c0.1-0.1-0.2,0.1-0.2,0.1
	c0.1,0,0.2,0,0.3-0.1c0.1,0,0.3-0.1,0,0c-0.3,0.1,0,0,0.1,0c0.1,0,0.3,0,0.1,0c-0.3,0-0.1,0,0,0l0.2,0.1c0.2,0-0.1-0.1-0.2-0.1
	c0.1,0.1,0.2,0.1,0.3,0.2c0.1,0,0.1,0.1,0.2,0.1c0.2,0.1-0.2-0.2-0.1-0.1c0.2,0.2,0.4,0.4,0.6,0.6c0.2,0.2-0.1-0.2,0,0.1
	c0.1,0.1,0.2,0.3,0.3,0.4c0.2,0.2,0.3,0.5,0.4,0.8c0.1,0.1,0.1,0.3,0.2,0.4c-0.1-0.3,0,0.1,0.1,0.2c0.3,0.7,0.5,1.4,0.6,2.2
	c0,0.1,0,0.2,0,0.2s0.1,0.4,0,0.1s0,0,0,0.1c0,0.1,0,0.2,0,0.3c0,0.4,0,0.8,0,1.2l0.9-1.6c-0.4,0.2,0.3-0.1,0,0
	c-0.1,0-0.3,0.1-0.4,0.1c0.3-0.1,0.3,0,0.1,0h-0.2c-0.2,0-0.1,0,0.2,0c-0.2-0.1-0.5-0.1-0.7-0.2c0.3,0.1,0.3,0.1,0.2,0.1l-0.2-0.1
	c-0.1-0.1-0.2-0.1-0.3-0.2c-0.1-0.1-0.1,0,0.2,0.1l-0.2-0.1c-0.1-0.1-0.2-0.2-0.3-0.3c-0.3-0.3,0.2,0.4,0,0.1l-0.2-0.4
	c-0.2-0.3,0.1,0.4,0,0c0-0.1-0.1-0.2-0.1-0.3c-0.1-0.3,0,0.5,0,0s-0.1,0.3,0,0c0.3-1-0.3-2-1.3-2.3c-1-0.3-2,0.3-2.3,1.3l0,0
	c-0.4,2.3,0.8,4.5,2.9,5.5c1.1,0.5,2.3,0.6,3.4,0.3c0.3-0.1,0.6-0.2,0.9-0.4c0.6-0.4,1-1.1,1-1.8c0-0.7,0-1.5-0.2-2.2
	c-0.2-1.3-0.5-2.5-1.1-3.7c-0.4-1.1-1.1-2.1-2-2.9c-0.9-1-2.2-1.5-3.6-1.5c-1.3,0.1-2.4,0.8-3.1,1.8c-1.3,1.8-1.1,4.4-0.7,6.4
	c0.3,1,1.3,1.5,2.3,1.3C90,93.2,90.6,92.2,90.4,91.2L90.4,91.2z"/>
<path class="st0" d="M44.5,100.3l0.1-2.9l-1.8,1.8c0.4,0-0.4-0.1-0.1,0l0.3,0.1c0.2,0.1,0.4,0.1,0.6,0.2c0.1,0,0.2,0.1,0.3,0.1
	c-0.5-0.1-0.2-0.1-0.1,0c0.1,0.1,0.4,0.2,0.5,0.3l0.3,0.2c0.2,0.2,0.1,0.1,0,0c0.1,0.1,0.3,0.3,0.5,0.4c0.1,0.1,0.3,0.3,0.4,0.4
	c0.1,0.1,0.1,0.2,0.2,0.2c-0.2-0.2-0.2-0.3-0.1-0.1c0,0,0.1,0.1,0.1,0.1c0.2,0.3,0.4,0.7,0.6,1.1c0.2,0.4-0.1-0.2,0-0.1
	c0.1,0.2,0.1,0.2,0.1,0.3c0.1,0.2,0.1,0.4,0.2,0.6l0.1,0.3c0.1,0.4,0-0.3,0-0.1c0,0.2,0,0.4,0,0.6c0,0.2,0,0.4,0,0.6s0.1-0.5,0-0.1
	c0,0.1-0.1,0.2-0.1,0.4l0.8-1.1c-0.3,0.1,0.4-0.1,0.1,0l-0.3,0.1c-0.1,0-0.2,0-0.3,0.1c0.4-0.1,0.3,0,0.1,0c-0.2,0-0.4,0-0.5,0
	c-0.3,0,0.5,0.1,0.1,0l-0.3-0.1l-0.3-0.1c-0.1-0.1-0.4-0.2,0.1,0.1c-0.2-0.1-0.3-0.1-0.5-0.2c-0.1-0.1-0.3-0.2-0.5-0.3
	c-0.2-0.1,0.4,0.3,0.1,0.1l-0.2-0.2c-0.1-0.1-0.2-0.2-0.4-0.4l-0.1-0.1l0.2,0.2c0-0.1-0.1-0.2-0.2-0.2c-0.1-0.2-0.2-0.3-0.3-0.5
	c-0.1-0.2-0.1-0.3,0,0.1c0-0.1-0.1-0.2-0.1-0.3c-0.1-0.2-0.1-0.3-0.1-0.5l0,0.3c0-0.1,0-0.1,0-0.2c0-0.1,0-0.2,0-0.3s0-0.2,0-0.3
	c0,0.1-0.1,0.5,0,0.2c0-0.2,0.1-0.4,0.2-0.6c0.3-1-0.3-2-1.3-2.3c0,0,0,0,0,0c-1-0.2-2,0.3-2.3,1.3c-0.6,1.7-0.3,3.6,0.7,5
	c1.1,1.6,2.8,2.6,4.7,2.9c0.9,0.1,1.9-0.1,2.7-0.5c1.2-0.5,1.3-2.2,1.2-3.3c-0.1-1.9-0.9-3.7-2.1-5.1c-1.4-1.6-3.3-2.6-5.4-2.8
	c-1,0-1.8,0.8-1.8,1.8l-0.1,2.9c0,1,0.8,1.8,1.8,1.8c1,0,1.8-0.8,1.8-1.8L44.5,100.3z"/>
<path class="st0" d="M32.6,149.6c6-1.5,12.3-1.9,18.4-1.4l-0.5-3.6c0,0-0.6,0.1-0.4,0.1s-0.3-0.1-0.3-0.1c-0.3-0.2-0.5-0.3-0.7-0.5
	c-0.8-0.7-1.5-1.5-2.2-2.2c-1.7-1.6-3.9-2.6-6.2-2.8c-2.3-0.2-4.6,0-6.9,0.4c-1.1,0.1-2.2,0.5-3.1,1.2c-1,0.9-1.4,2.4-0.9,3.7
	c0.5,1.3,1,2.6,1.6,3.8c0.4,1.2,0.9,2.4,1.6,3.6c2,2.8,5.1,1.2,7.6,0.1c1.3-0.6,2.6-1.2,3.8-1.8c1.2-0.5,2.3-1.2,3.4-2
	c1-0.7,1.4-1.9,1.2-3.1c-0.4-1.3-1.3-2.4-2.6-2.9c-5.2-2.4-11.2-2.2-16.2,0.5c-1.5,0.8-1,2.9,0.4,3.4c3.7,1.2,7.8,0.5,11-1.8
	l-2.2-2.9c-1.4,1.6-2.7,3.4-3.6,5.4l1.6-0.9c-0.2,0-0.3,0-0.1,0s0.1,0.1,0,0c0.1,0,0.1,0.1,0.1,0.1c-0.1-0.1-0.1-0.2-0.2-0.3
	c0.1,0.2-0.1-0.3-0.1-0.3c0,0.3,0.1-0.6,0-0.2c0.2-0.7,1.4-1.1,2.2-1.3c3.2-0.7,6.6-1,9.9-0.8l-1.6-0.9c0.2,0.3,0.3,0.8,0.2,1.2
	c-0.1,0.5-0.4,1-0.7,1.3c-1.1,1.1-2.7,1.4-4.2,1.6c-3.2,0.6-6.6,1.3-8.4,4.3c-1.2,2,1.9,3.9,3.2,1.9c1.4-2.3,5.1-2.3,7.4-2.8
	c3-0.7,5.9-2.6,6.4-5.9c0.2-1.6-0.2-4.2-2.2-4.3c-1.8-0.1-3.7,0-5.5,0.2c-2.9,0.3-7,0.4-9.1,2.9c-2.1,2.5-0.9,7.3,2.8,7.1
	c0.7,0,1.3-0.3,1.6-0.9c0.8-1.7,1.8-3.2,3-4.6c0.6-0.7,0.7-1.7,0.1-2.4c-0.6-0.7-1.6-0.9-2.4-0.5c-2.3,1.8-5.4,2.3-8.2,1.4l0.4,3.4
	c3.2-1.7,7-2.1,10.6-1.2c0.8,0.2,1.6,0.5,2.3,0.9c0.1,0.1,0.3,0.2,0.4,0.2c0.3,0.2,0,0.2,0.1,0v-0.3c0.2-0.2,0.2-0.3,0-0.1
	c-0.1,0.1-0.3,0.2-0.4,0.3c-1.9,1.1-3.9,2.1-5.9,2.9c-0.9,0.5-1.9,0.9-2.9,1.2c-0.2,0-0.4,0-0.3,0.1c-0.2-0.2-0.4-0.7-0.5-1
	c-0.4-1-0.9-2.1-1.3-3.1c-0.2-0.4-0.4-0.9-0.5-1.3c-0.1-0.2-0.2-0.5-0.3-0.7c-0.1-0.1-0.1-0.3-0.1-0.4c0,0.1,0,0.3-0.1,0.3
	c0,0,1.5-0.4,1.7-0.4c0.9-0.1,1.7-0.3,2.6-0.3c1.7-0.2,3.3-0.1,4.9,0.4c3.3,1.2,5,6.5,9.3,5c1-0.3,1.5-1.3,1.2-2.3
	c-0.2-0.8-0.9-1.3-1.7-1.3c-6.5-0.5-13.1,0-19.4,1.5C29.2,146.7,30.2,150.2,32.6,149.6L32.6,149.6z"/>
</svg>
