<?xml version="1.0" encoding="utf-8"?>
<!-- Generator: Adobe Illustrator 26.0.1, SVG Export Plug-In . SVG Version: 6.00 Build 0)  -->
<svg version="1.1" id="Layer_1" xmlns="http://www.w3.org/2000/svg" xmlns:xlink="http://www.w3.org/1999/xlink" x="0px" y="0px"
	 viewBox="0 0 481 460" style="enable-background:new 0 0 481 460;" xml:space="preserve">
<style type="text/css">
	.st0{fill:#FFFFFF;stroke:#FFFFFF;stroke-width:2;stroke-miterlimit:10;}
	.st1{fill:#FFFFFF;}
</style>
<path class="st0" d="M120.8,247.1c-3,23.1-8,45.9-12.8,68.8c-4.8,22.8-9.3,45.9-11.3,69.2c-0.8,9.6-1.4,20.1,3.8,28.7
	c4.6,7.8,13.7,11.7,22.6,11c9.3-0.7,17.4-6.1,23-13.3c2.8-3.6,5.1-7.5,7-11.6c1.9-3.9,3.6-8,6.4-11.3c2.5-3,6.2-5.9,10.4-4.8
	s7.1,4.6,9.1,8.1c5.5,9.4,8.9,19.8,13.3,29.6c3.1,7,9,12.3,16.3,14.6c7.2,2.1,14.8,2.1,21.9-0.1c7.8-2.1,14.7-6.8,19.6-13.3
	c4.9-6.7,7-15,8.5-23.1c1.6-8.4,2.3-17.5,6.2-25.3c1.9-4,5-7.4,8.8-9.8c4-2.3,8.4-3.7,13-4.2c18.5-2.5,37.6,5.2,50.3,18.7
	c3.4,3.7,6.4,7.8,8.7,12.2c2.3,4.5,4,9.2,5,14.1c1.9,8.2,3.1,16.9,10,22.5c3.4,2.7,7.4,4.5,11.7,5.3c3.1,0.6,4.5-4.2,1.3-4.8
	c-4.1-0.7-7.9-2.5-11-5.4c-2.5-2.6-4.2-5.8-5-9.3c-1.2-4.4-1.9-8.9-3.1-13.3c-1.4-5-3.4-9.7-6-14.1c-10.1-16.7-27.2-28-46.5-30.8
	c-9.4-1.3-19.4-0.6-28.1,3.3c-9,4.1-14.1,12.3-16.6,21.6c-4.2,15.3-3,34.4-16.7,45.2c-5.6,4.2-12.4,6.7-19.4,7
	c-6.5,0.4-13.6-1-18.7-5.4c-2.7-2.5-4.8-5.5-6.2-8.9c-2.2-5-4.2-10.1-6.4-15.1c-1.9-4.9-4.2-9.6-6.8-14.2c-2.4-3.9-5.7-7.5-9.9-9.3
	c-9.7-4.1-17.4,4.3-21.6,12.1c-2,3.8-3.7,7.8-5.9,11.6c-2.2,3.8-5.1,7.3-8.4,10.2c-6.4,5.5-15.1,8-23.3,5.2
	c-8.8-3-12.3-11.8-12.7-20.5c-0.2-4.9,0-9.8,0.6-14.7c0.5-5.7,1.1-11.4,1.9-17.1c1.6-11.5,3.7-22.9,5.9-34.2
	c4.5-22.6,9.8-45.1,13.6-67.9c0.9-5.7,1.8-11.4,2.5-17.1c0-1.4-1.1-2.5-2.5-2.5C121.9,244.7,120.8,245.8,120.8,247.1L120.8,247.1z"
	/>
<path class="st0" d="M372.3,433.2c13.2,2.5,26.9,2.7,40-0.5c10-2.4,20.2-7,27.2-14.8s10.5-18.9,11.9-29.2
	c1.5-11.1-0.7-23.1-4.7-33.5c-1.1-2.8-2.5-5.5-3.3-8.4c-1.1-3.6-2.2-7.1-3.3-10.7c-1.8-5.7-3.8-11.5-5.8-17.1
	c-4.4-12.4-8.8-24.7-13-37.1c-7.4-22.2-14-44.7-21.4-66.9c-0.6-1.6-1.1-3.3-1.5-5c-0.3-1.8,0-3.7,0.7-5.4c1.2-3.7,2.4-7.3,3.6-11
	c2.3-7,4.8-13.9,7.1-20.8c4.7-13.9,9-28,11.4-42.5c0.6-3.6,1.1-7.3,1.5-11c0-1.2-0.9-2.3-2.2-2.5c-1.2-0.1-2.4,0.6-2.7,1.8
	c-0.3,0.7-0.4,1.4-0.4,2.1c0,1.2,0.9,2.3,2.2,2.5c1.2,0.1,2.4-0.6,2.7-1.8c0.2-0.5,0.3-0.9,0.3-1.4c0.3-1.4-0.5-2.7-1.9-3.1
	c-0.6-0.1-1.2-0.1-1.8,0.2l-0.7,0.3c-0.4,0.2-0.9,0.4-1.3,0.5c-0.9,0.4-1.7,0.8-2.4,1.4c-1.5,1.3-2.1,3.8-0.1,5
	c2.5,1.4,6.8-1.7,7.9-3.9c0.7-1.2,0.2-2.8-1-3.4c-0.8-0.4-1.7-0.4-2.4,0c-12.3,6.1-21.2,16.6-30.9,25.9c-9.8,9.8-21.5,17.3-34.5,22
	c-13.5,5.4-27.5,9.5-41.8,12.1c-10.5,1.8-21.1,3.1-31.7,3.9c-15.1,1.2-30.2,1.4-45.3,0.6c-3.2-0.2-3.2,4.8,0,5
	c24.6,1.3,49.3,0.1,73.6-3.8c14.2-2.3,28.2-6,41.6-11c7-2.4,13.7-5.4,20.2-8.9c5.9-3.4,11.5-7.4,16.7-11.9
	c11.4-9.9,20.8-22.5,34.6-29.4l-3.4-3.4c-0.1,0.2-0.1,0.1,0.1,0c-0.1,0.1-0.2,0.3-0.3,0.4c-0.3,0.2-0.5,0.4-0.8,0.6
	c-0.3,0.2-0.7,0.5-1,0.6c-0.1,0-0.4,0.3-0.3,0.1s0.1,0,0,0c-0.5,0.1-0.1,0.2,1.3,0.3l0.9,0.9l0-0.1l0.3,1.3c0.1,1-0.7,1,0,0.8
	c0.4-0.2,0.8-0.4,1.2-0.6c0.7-0.3,1.5-0.6,2.2-0.9l-3.7-2.8c-0.1,0.5-0.2,1-0.3,1.4l4.9,0.7c0-0.3,0.1-0.5,0.2-0.7l-4.9-0.7
	c-2.9,29.1-14.6,56.1-23.3,83.7c-0.6,1.6-1,3.4-1.1,5.1c0,2,0.4,3.9,1,5.7c1,3.2,2.1,6.4,3.1,9.5c1.9,5.7,3.7,11.3,5.5,17
	c3.3,10.5,6.5,21,9.9,31.5c3.9,12.1,8,24.1,12.2,36.1c4.1,11.5,8.2,23.1,11.9,34.8c0.9,3.4,2,6.7,3.3,10c1.2,2.6,2.2,5.2,3.1,7.8
	c2.2,6.7,3.3,13.6,3.4,20.7c0.1,1.8,0,3.7-0.1,5.5c0,0.2,0,0.4-0.1,0.6s0,0.3,0,0.5c0-0.1,0.1-0.5,0,0c-0.1,0.9-0.3,1.8-0.4,2.7
	c-1,5.4-2.6,10.7-5,15.7c-2.1,4.4-5,8.3-8.8,11.5c-3.8,3.1-8,5.5-12.5,7.3c-11.3,4.5-23.8,5.7-35.9,4.7c-3.4-0.3-6.9-0.7-10.2-1.4
	C370.5,427.8,369.1,432.6,372.3,433.2L372.3,433.2z"/>
<path class="st0" d="M235.5,182c-5.1-19.1-11.8-37.7-20.1-55.7c-6.5-14-14-27.5-22.5-40.3c-9.3-14.1-19.6-27.4-31-39.9
	c-4.3-4.8-9-9.2-14-13.1c-3-2.3-6.5-4.7-10.3-5c-1.7-0.1-3.3,0.4-4.5,1.5c-1.8,1.7-2.2,4.3-2.6,6.6c-0.5,3.5-1.3,7-2.4,10.5
	c-1.6,4.6-3.9,9-6.8,12.9c-1,1.4-2.1,2.7-3.2,3.9l2.4-0.6c-6.2-1.1-12.2-2.8-17.9-5.3c-4.6-1.9-9.3-3.9-13.8-6c-1.9-1-4-1.6-6.2-1.9
	c-4.2-0.3-6.8,2.9-8.2,6.4c-1.4,3.8-2.3,7.7-2.6,11.7c-0.5,4-0.5,8.1,0,12.2c0.5,4.1,1.8,8.1,2.3,12.2c0.6,3.4-0.3,6.8-2.5,9.4
	c-2.1,2.6-4.7,4.8-6.8,7.5c-2,2.6-3.7,5.5-4.8,8.7c-4.6,12.5-1.8,26.3-3,39.2c-0.3,3.1-0.9,6.3-1.8,9.3c-1.2,3.5-2.8,6.8-4.9,9.8
	c-2.1,3.3-4.4,6.6-6.2,10.1c-1.9,3.5-3.6,7.2-5,10.9c-2.8,7.2-4.4,14.7-5,22.4c-0.4,6.6,0.3,13.5,3.4,19.5
	c3.4,6.6,9.7,10.4,16.8,12.1c7.6,1.8,15.5,2.6,23.3,2.5c15.9-0.1,31.6-3.2,46.4-9c14.3-5.6,27.8-13.2,40-22.5
	c9.7-7.2,18.7-15.5,26.7-24.6c1.5-1.7,3-3.5,4.5-5.3c0.9-1,0.9-2.5,0-3.5c-1-1-2.6-1-3.5,0c-12.3,15.3-27.2,28.3-44,38.5
	c-21.5,13.1-45.9,21.6-71.3,21.4c-6.2,0-12.5-0.6-18.6-1.8c-5.2-1.1-10.5-3-13.9-7.3c-6.6-8.3-5.2-20.9-3-30.5
	c1.4-6.1,3.5-12.1,6.3-17.7c2.9-5.7,6.7-10.7,9.8-16.3c5.5-10,5.6-21.2,5.6-32.3c-0.1-9.8-0.4-20.7,5.4-29.2c3-4.4,7.7-7.4,10-12.2
	c3.1-6.5,0.4-13-0.8-19.6c-1-6.3-0.8-12.8,0.7-19c0.5-2.3,1-5.7,2.9-7.3c0.8-0.6,1.9-0.8,2.9-0.4c0.4,0.1,0.9,0.3,1.3,0.4
	c0,0,0.8,0.3,0.3,0.1l0.2,0.1c7.5,3.2,14.9,6.7,22.6,9.4c2.3,0.8,4.6,1.5,6.9,2c1.4,0.3,2.9,0.6,4.4,0.8c1.8,0.2,2.6-0.8,3.7-2
	c4-4.6,7.2-10,9.3-15.7c1.5-4.2,2.5-8.6,3.2-13c0.1-0.7,0.3-1.4,0.4-2.1c0.1-0.3,0.2-0.6,0.3-0.9s0.3-0.6,0,0l0.2-0.4
	c0.1-0.1,0.2-0.2,0.2-0.4c-0.3,0.5-0.2,0.3-0.1,0.1c0.5-0.6-0.3,0.2,0.1-0.1s-0.1,0-0.1,0c0.2,0,0.3-0.1,0.5-0.1
	c0.5-0.2-0.7,0-0.1,0c0.2,0,0.3,0,0.5,0c0.2,0,0.3,0,0.5,0c-0.8,0-0.3,0,0.1,0c0.4,0.1,0.8,0.2,1.1,0.3l0.6,0.2
	c-0.8-0.3,0.1,0.1,0.3,0.1c1.1,0.5,2.1,1.1,3.1,1.8c0.6,0.4,1.1,0.8,1.7,1.2l0.5,0.4c0.4,0.3,0.7,0.6,1.1,0.8
	c6.8,5.5,12.7,12.1,18.4,18.8c12.7,14.9,24.1,30.9,33.9,47.8c11,19.2,20,39.5,26.8,60.5c2,6,3.8,12.1,5.4,18.2
	C231.5,186.4,236.4,185,235.5,182L235.5,182z"/>
<path class="st1" d="M131.3,144.2c-0.1-0.3-0.1-0.6-0.2-0.8s0.1,0.6,0,0c0-0.2,0-0.4-0.1-0.5c0-0.6,0-1.3,0-1.9c0-0.1,0-0.1,0-0.2
	c0-0.3,0,0.3,0,0.3c0-0.1,0.1-0.3,0.1-0.4c0.1-0.3,0.2-0.6,0.3-0.9c0,0-0.2,0.5-0.1,0.3c0,0,0.1-0.1,0.1-0.2l0.2-0.3
	c0.2-0.3-0.4,0.4-0.1,0.1c0.1-0.1,0.3-0.2,0.4-0.3c-0.1,0.2-0.5,0.3-0.1,0.1c0.1,0,0.1-0.1,0.2-0.1c0.2-0.1-0.3,0.1-0.3,0.1
	c0.1,0,0.3-0.1,0.4-0.1c0.1,0,0.4-0.1,0,0s0,0,0.1,0s0.5,0,0.1,0s-0.1,0,0,0l0.2,0.1c0.2,0-0.2-0.1-0.2-0.1c0.1,0.1,0.3,0.2,0.4,0.2
	c0.1,0.1,0.1,0.1,0.2,0.1c0.3,0.2-0.3-0.3-0.1-0.1c0.3,0.3,0.6,0.5,0.8,0.8c0.3,0.3-0.2-0.3,0.1,0.1c0.1,0.2,0.2,0.3,0.4,0.5
	c0.2,0.3,0.4,0.7,0.6,1.1c0.1,0.2,0.2,0.4,0.3,0.6c-0.2-0.5,0,0.1,0.1,0.3c0.4,1,0.6,1.9,0.8,2.9c0,0.1,0,0.2,0,0.3s0.1,0.5,0,0.2
	s0,0,0,0.1s0,0.3,0,0.4c0,0.6,0.1,1.1,0.1,1.7l1.2-2.2c-0.6,0.3,0.4-0.1,0,0c-0.2,0-0.4,0.1-0.5,0.1c0.4-0.2,0.5,0,0.1,0h-0.3
	c-0.3,0-0.2,0,0.3,0c-0.3-0.1-0.6-0.2-0.9-0.3c0.4,0.2,0.4,0.2,0.2,0.1l-0.2-0.1c-0.1-0.1-0.3-0.2-0.4-0.3s-0.1,0,0.2,0.2l-0.2-0.2
	c-0.1-0.1-0.3-0.3-0.4-0.4c-0.4-0.4,0.3,0.5,0.1,0.1l-0.3-0.5c-0.2-0.4,0.2,0.6,0,0c0-0.1-0.1-0.3-0.1-0.4c-0.1-0.4,0,0.7,0,0
	s-0.1,0.4,0,0c0.4-1.3-0.4-2.7-1.7-3.1c-1.3-0.4-2.7,0.4-3.1,1.7l0,0c-0.6,3.1,1.1,6.2,3.9,7.4c1.4,0.7,3.1,0.9,4.7,0.4
	c0.4-0.1,0.8-0.3,1.2-0.5c0.9-0.5,1.4-1.4,1.4-2.4c0-1-0.1-2-0.2-3c-0.3-1.7-0.7-3.4-1.4-5c-0.6-1.5-1.5-2.9-2.7-4
	c-1.3-1.3-3.1-2.1-4.9-2c-1.7,0.1-3.3,1-4.2,2.5c-1.8,2.4-1.5,6-0.9,8.8c0.4,1.3,1.7,2.1,3.1,1.7C130.8,147,131.6,145.6,131.3,144.2
	L131.3,144.2z"/>
<path class="st1" d="M68.8,156.6l0.1-4l-2.5,2.5c0.5,0-0.6-0.1-0.1,0l0.4,0.1c0.3,0.1,0.5,0.1,0.8,0.2c0.1,0.1,0.3,0.1,0.4,0.1
	c-0.7-0.2-0.3-0.1-0.1,0s0.5,0.3,0.7,0.4l0.4,0.2c0.3,0.2,0.1,0.1-0.1,0c0.2,0.2,0.4,0.4,0.6,0.5c0.2,0.2,0.4,0.4,0.6,0.6
	c0.1,0.1,0.2,0.2,0.3,0.3c-0.2-0.3-0.3-0.4-0.1-0.2c0,0.1,0.1,0.1,0.1,0.2c0.3,0.5,0.6,1,0.8,1.5c0.2,0.5-0.1-0.3,0-0.1
	s0.1,0.3,0.1,0.4c0.1,0.3,0.2,0.5,0.2,0.8l0.1,0.4c0.1,0.6,0-0.4,0-0.1s0,0.6,0,0.8s0,0.6,0,0.8s0.1-0.7,0-0.1
	c0,0.2-0.1,0.3-0.1,0.5l1.1-1.5c-0.4,0.2,0.6-0.2,0.1-0.1l-0.4,0.1c-0.1,0-0.2,0-0.4,0.1c0.6-0.2,0.5,0,0.2,0c-0.2,0-0.5,0-0.7,0
	c-0.5,0,0.6,0.1,0.2,0l-0.4-0.1l-0.4-0.1c-0.2-0.1-0.5-0.3,0.1,0.1c-0.2-0.1-0.4-0.2-0.6-0.3s-0.4-0.3-0.6-0.4s0.5,0.4,0.1,0.1
	l-0.3-0.3c-0.2-0.2-0.3-0.3-0.5-0.5l-0.2-0.2l0.2,0.3c-0.1-0.1-0.1-0.2-0.2-0.3c-0.1-0.2-0.3-0.4-0.4-0.7c-0.1-0.2-0.1-0.5,0,0.1
	c0-0.1-0.1-0.2-0.1-0.4c-0.1-0.2-0.2-0.5-0.2-0.7l0.1,0.4c0-0.1,0-0.2,0-0.2c0-0.1,0-0.2,0-0.4s0-0.2,0-0.4c0,0.1-0.1,0.6,0,0.2
	c0.1-0.3,0.1-0.5,0.2-0.8c0.4-1.3-0.4-2.7-1.7-3.1c0,0,0,0,0,0c-1.3-0.3-2.7,0.4-3.1,1.8c-0.8,2.3-0.4,4.8,1,6.8
	c1.5,2.2,3.8,3.6,6.4,3.9c1.3,0.1,2.5-0.1,3.7-0.6c1.6-0.7,1.8-2.9,1.7-4.5c-0.2-2.6-1.2-5-2.9-7c-1.9-2.2-4.5-3.6-7.4-3.8
	c-1.4,0-2.5,1.1-2.5,2.5l-0.1,4c0,1.4,1.1,2.5,2.5,2.5c1.4,0,2.5-1.1,2.5-2.5L68.8,156.6z"/>
<path class="st1" d="M52.5,223.8c8.2-2,16.7-2.6,25.1-1.9L77,217c0,0-0.8,0.1-0.5,0.1S76,217,76,217c-0.4-0.2-0.7-0.5-1-0.7
	c-1.1-0.9-2-2-3-3c-2.3-2.2-5.3-3.6-8.5-3.8c-3.2-0.2-6.3,0-9.4,0.6c-1.5,0.1-3,0.7-4.2,1.6c-1.4,1.3-1.9,3.2-1.2,5
	c0.6,1.8,1.3,3.5,2.1,5.2c0.5,1.7,1.3,3.3,2.2,4.8c2.7,3.8,7,1.6,10.4,0.1c1.8-0.8,3.5-1.6,5.2-2.5c1.6-0.7,3.2-1.6,4.6-2.7
	c1.3-1,1.9-2.7,1.7-4.3c-0.5-1.8-1.8-3.3-3.6-3.9c-7.1-3.3-15.2-3-22.1,0.6c-2,1.1-1.4,3.9,0.6,4.6c5.1,1.6,10.7,0.7,15-2.4l-3-3.9
	c-2,2.2-3.6,4.7-4.9,7.3l2.2-1.2c-0.3,0-0.4,0-0.1,0s0.2,0.1-0.1,0c0.1,0,0.2,0.1,0.2,0.2c-0.1-0.1-0.2-0.3-0.3-0.5
	c0.1,0.3-0.1-0.4-0.1-0.4c0.1,0.4,0.2-0.8,0-0.3c0.2-0.9,1.8-1.5,3-1.8c4.4-0.9,8.9-1.3,13.4-1.1l-2.2-1.2c0.3,0.5,0.4,1.1,0.2,1.6
	c-0.2,0.7-0.5,1.3-1,1.8c-1.4,1.5-3.7,1.9-5.7,2.2c-4.4,0.8-8.9,1.7-11.4,5.8c-1.7,2.8,2.6,5.3,4.3,2.5c1.9-3.2,6.9-3.1,10.1-3.8
	c4.1-1,8-3.5,8.7-8c0.3-2.2-0.3-5.7-3.1-5.9c-2.5-0.1-5,0-7.5,0.3c-4,0.4-9.5,0.5-12.4,3.9s-1.3,10,3.8,9.7c0.9,0,1.7-0.5,2.2-1.2
	c1.1-2.3,2.5-4.4,4.1-6.3c0.9-0.9,1-2.3,0.2-3.3c-0.8-1-2.1-1.3-3.2-0.6c-3.2,2.5-7.4,3.2-11.2,1.9l0.6,4.6
	c4.4-2.3,9.6-2.9,14.4-1.6c1.1,0.3,2.2,0.7,3.2,1.2c0.2,0.1,0.4,0.2,0.6,0.3c0.5,0.2,0,0.3,0.1,0V218c0.2-0.3,0.2-0.4,0-0.2
	c-0.2,0.1-0.4,0.3-0.6,0.4c-2.6,1.5-5.3,2.8-8,4c-1.2,0.7-2.5,1.2-3.9,1.6c-0.3,0.1-0.6,0.1-0.5,0.1c-0.3-0.2-0.5-1-0.7-1.4
	c-0.6-1.4-1.2-2.8-1.8-4.2c-0.2-0.6-0.5-1.2-0.7-1.8c-0.1-0.3-0.3-0.7-0.4-1c-0.1-0.2-0.1-0.4-0.2-0.6c0.1,0.2,0,0.4-0.1,0.5
	c0,0,2-0.5,2.3-0.6c1.2-0.2,2.4-0.4,3.5-0.5c2.3-0.3,4.6-0.1,6.7,0.6c4.5,1.6,6.8,8.9,12.6,6.8c1.3-0.4,2.1-1.8,1.7-3.1
	c-0.3-1-1.3-1.8-2.3-1.8c-8.9-0.7-17.8,0-26.4,2.1C48,219.8,49.3,224.6,52.5,223.8L52.5,223.8z"/>
</svg>
