<svg id="Layer_1" data-name="Layer 1" xmlns="http://www.w3.org/2000/svg" viewBox="0 0 417.81 409.69"><defs><style>.cls-1{fill:white;}</style></defs><path class="cls-1" d="M227.69,423.23c-3,23.14-8,45.95-12.82,68.77s-9.34,45.88-11.27,69.21c-.79,9.57-1.35,20.09,3.77,28.67,4.65,7.81,13.67,11.72,22.59,11,9.31-.74,17.35-6.08,23-13.29A61.53,61.53,0,0,0,260,576c1.86-3.86,3.64-7.95,6.4-11.29,2.53-3.05,6.2-5.89,10.38-4.8s7.06,4.62,9.08,8.08c5.47,9.38,8.85,19.78,13.33,29.63a26.48,26.48,0,0,0,16.31,14.59,38.4,38.4,0,0,0,21.92-.06A36.59,36.59,0,0,0,357,598.9c4.94-6.71,7-15,8.51-23.09,1.57-8.44,2.3-17.53,6.2-25.3a23.23,23.23,0,0,1,8.8-9.75,34.23,34.23,0,0,1,13-4.24c18.54-2.54,37.6,5.16,50.26,18.68a56,56,0,0,1,8.69,12.19,57.62,57.62,0,0,1,5,14.12c1.87,8.19,3.09,16.89,10,22.51a26.46,26.46,0,0,0,11.69,5.28c3.15.62,4.49-4.2,1.33-4.82a21,21,0,0,1-11-5.36,20.36,20.36,0,0,1-5-9.32c-1.21-4.37-1.91-8.87-3.09-13.26a56.65,56.65,0,0,0-6-14.12,65.17,65.17,0,0,0-46.53-30.77c-9.36-1.27-19.38-.64-28.06,3.32-9,4.11-14.09,12.3-16.62,21.56-4.18,15.29-3,34.41-16.73,45.16a35,35,0,0,1-19.39,7c-6.55.36-13.6-1-18.7-5.37a24.18,24.18,0,0,1-6.17-8.92c-2.25-5-4.23-10.09-6.36-15.12A112.49,112.49,0,0,0,290,565.13c-2.35-3.91-5.67-7.52-9.93-9.33-9.68-4.11-17.43,4.28-21.58,12.09-2,3.82-3.67,7.84-5.89,11.56a41.2,41.2,0,0,1-8.42,10.18c-6.38,5.47-15.14,8-23.26,5.18-8.8-3-12.26-11.81-12.73-20.46a102.25,102.25,0,0,1,.56-14.74q.75-8.6,1.95-17.13c1.59-11.47,3.67-22.87,5.94-34.23,4.52-22.65,9.79-45.15,13.56-67.94q1.41-8.52,2.5-17.08a2.51,2.51,0,0,0-2.5-2.5,2.57,2.57,0,0,0-2.5,2.5Z" transform="translate(-140.92 -204.11)"/><path class="cls-1" d="M479.19,609.3c13.18,2.46,26.89,2.67,40-.51,10-2.44,20.2-7,27.2-14.81s10.48-18.87,11.88-29.15c1.52-11.13-.65-23.14-4.71-33.53-1.1-2.81-2.45-5.47-3.32-8.36q-1.61-5.36-3.31-10.68-2.76-8.62-5.77-17.14c-4.37-12.36-8.85-24.67-13-37.1-7.39-22.24-14-44.72-21.4-66.95a39.07,39.07,0,0,1-1.48-4.95,10.37,10.37,0,0,1,.66-5.39q1.74-5.5,3.59-11c2.35-6.95,4.78-13.88,7.13-20.84,4.68-13.92,9-28,11.38-42.53q.9-5.46,1.45-11a2.47,2.47,0,0,0-2.17-2.45,2.54,2.54,0,0,0-2.74,1.79,6.65,6.65,0,0,0-.43,2.07,2.48,2.48,0,0,0,2.17,2.46,2.55,2.55,0,0,0,2.74-1.79,6.17,6.17,0,0,0,.34-1.41,2.54,2.54,0,0,0-3.67-2.83l-.72.3c-.43.18-.86.35-1.29.54a9.82,9.82,0,0,0-2.43,1.41c-1.52,1.3-2.11,3.84-.06,5,2.47,1.44,6.83-1.66,7.92-3.87a2.52,2.52,0,0,0-3.42-3.42c-12.27,6.1-21.17,16.58-30.91,25.88a94.65,94.65,0,0,1-34.52,22,217.37,217.37,0,0,1-41.84,12.06A308.91,308.91,0,0,1,386.78,357a345.7,345.7,0,0,1-45.29.57c-3.21-.17-3.2,4.83,0,5a347.94,347.94,0,0,0,73.59-3.78,216.93,216.93,0,0,0,41.63-11,145.45,145.45,0,0,0,20.25-8.9A100.48,100.48,0,0,0,493.63,327c11.44-9.94,20.78-22.52,34.61-29.4l-3.42-3.42c-.11.23-.06.09.07,0-.13.1-.22.26-.35.37a6.8,6.8,0,0,1-.8.64,8.54,8.54,0,0,1-1,.64c-.07,0-.44.29-.29.15s.1-.05,0,0c-.55.15-.11.24,1.31.26l.9.9-.05-.08.34,1.26c.13,1-.73,1,0,.79a9.9,9.9,0,0,0,1.18-.58c.72-.32,1.46-.6,2.18-.92l-3.67-2.82a6.17,6.17,0,0,1-.34,1.41l4.91.66a2.81,2.81,0,0,1,.25-.74l-4.91-.67c-2.91,29.06-14.57,56.11-23.28,83.71a17.45,17.45,0,0,0-1.11,5.13,18.65,18.65,0,0,0,1,5.73c1,3.19,2.1,6.36,3.14,9.54q2.78,8.49,5.46,17c3.31,10.5,6.54,21,9.91,31.5q5.82,18.13,12.23,36.06c4.12,11.55,8.25,23.08,11.89,34.8a76.89,76.89,0,0,0,3.34,10,68.69,68.69,0,0,1,3.08,7.85,70.43,70.43,0,0,1,3.44,20.66,48.22,48.22,0,0,1-.14,5.51c0,.2-.05.41-.07.61s0,.3,0,.45c0-.1.07-.55,0,0-.13.91-.28,1.82-.44,2.72A62.35,62.35,0,0,1,548,582.44a33.87,33.87,0,0,1-8.75,11.47,45.71,45.71,0,0,1-12.54,7.27c-11.35,4.49-23.81,5.65-35.91,4.68a95.57,95.57,0,0,1-10.25-1.38c-3.14-.58-4.49,4.23-1.33,4.82Z" transform="translate(-140.92 -204.11)"/><path class="cls-1" d="M342.45,358.09a345.73,345.73,0,0,0-20.07-55.66,303.7,303.7,0,0,0-22.51-40.34,320.64,320.64,0,0,0-31-39.85,110.85,110.85,0,0,0-14-13.14c-3-2.27-6.48-4.69-10.33-5a6,6,0,0,0-4.52,1.54c-1.76,1.67-2.22,4.29-2.63,6.56A74.43,74.43,0,0,1,235,222.67a46.64,46.64,0,0,1-6.8,12.88,48.18,48.18,0,0,1-3.24,3.9l2.43-.65a77.9,77.9,0,0,1-17.91-5.34c-4.65-1.88-9.26-3.89-13.84-6a17.55,17.55,0,0,0-6.16-1.87c-4.16-.26-6.78,2.91-8.17,6.44a46.41,46.41,0,0,0-2.65,11.7,52.32,52.32,0,0,0,0,12.19c.5,4.14,1.78,8.11,2.34,12.23a11.74,11.74,0,0,1-2.51,9.43c-2.12,2.64-4.74,4.81-6.83,7.48a31.29,31.29,0,0,0-4.79,8.67c-4.55,12.47-1.83,26.26-3,39.2a44.33,44.33,0,0,1-1.81,9.27,42.41,42.41,0,0,1-4.85,9.8c-2.12,3.34-4.35,6.59-6.25,10.06A84.09,84.09,0,0,0,146,373,78.31,78.31,0,0,0,141,395.41c-.41,6.6.34,13.54,3.43,19.48,3.43,6.59,9.73,10.38,16.77,12.14a95.82,95.82,0,0,0,23.32,2.48,129.36,129.36,0,0,0,46.39-9.05,168.84,168.84,0,0,0,40-22.47,175,175,0,0,0,26.67-24.58q2.29-2.6,4.45-5.3a2.56,2.56,0,0,0,0-3.53,2.5,2.5,0,0,0-3.53,0,170.89,170.89,0,0,1-44,38.55c-21.47,13.11-45.92,21.61-71.28,21.38a96.88,96.88,0,0,1-18.61-1.83c-5.25-1.09-10.52-3-13.95-7.32-6.57-8.33-5.21-20.89-3-30.5a77.57,77.57,0,0,1,6.28-17.68c2.85-5.68,6.71-10.71,9.76-16.26,5.5-10,5.62-21.21,5.55-32.3-.06-9.84-.38-20.69,5.43-29.17,3-4.36,7.7-7.37,10-12.22,3.09-6.48.35-13.05-.76-19.64a48.7,48.7,0,0,1,.68-19c.53-2.26,1-5.7,2.92-7.32a3,3,0,0,1,2.86-.41c.45.12.88.28,1.32.42,0,0,.76.29.27.09l.22.1c7.5,3.21,14.89,6.66,22.58,9.41a59,59,0,0,0,6.89,2c1.45.32,2.92.59,4.39.8,1.75.24,2.64-.84,3.67-2A53.09,53.09,0,0,0,239.06,226,73,73,0,0,0,242.28,213c.13-.69.27-1.39.45-2.07.08-.3.18-.58.27-.87s.31-.64,0,0l.21-.41c.07-.13.16-.25.23-.37-.32.52-.21.28-.07.12.46-.55-.27.16.13-.12s-.11,0-.1,0a2,2,0,0,0,.48-.14c.47-.18-.67,0-.14,0a3.69,3.69,0,0,0,.47,0c.16,0,.33,0,.49,0-.82,0-.27,0,.07,0a8.92,8.92,0,0,1,1.15.33l.62.24c-.8-.3.1.06.31.15a29.14,29.14,0,0,1,3.1,1.81c.57.39,1.13.78,1.69,1.19l.5.38c.36.27.7.55,1.05.83,6.8,5.52,12.74,12.13,18.4,18.78a321.55,321.55,0,0,1,33.9,47.78,319.12,319.12,0,0,1,26.75,60.55q2.94,9,5.39,18.19c.83,3.1,5.66,1.78,4.82-1.33Z" transform="translate(-140.92 -204.11)"/><path class="cls-1" d="M238.21,320.29c-.06-.28-.11-.56-.16-.84s.06.58,0,0c0-.17,0-.35-.05-.52a12.44,12.44,0,0,1,0-1.93,1.49,1.49,0,0,0,0-.21c0-.27,0,.32,0,.31a3.1,3.1,0,0,0,.08-.42c.06-.3.23-.61.26-.91,0,0-.25.51-.12.3,0-.05.05-.11.08-.17l.19-.33c.19-.34-.37.39-.09.12.1-.11.27-.23.35-.34-.14.19-.46.31-.1.11a1.29,1.29,0,0,1,.16-.09c.18-.13-.29.12-.3.12a1.94,1.94,0,0,0,.39-.12c.07,0,.37-.07,0,0s0,0,.09,0,.47,0,.08,0-.1,0,0,0l.23.07c.25,0-.18-.08-.21-.1a2.38,2.38,0,0,0,.45.23,1.64,1.64,0,0,0,.22.14c.28.16-.33-.29-.09-.07a10.7,10.7,0,0,1,.83.82c.32.34-.2-.32.06.07a6.18,6.18,0,0,1,.36.53c.21.34.4.71.58,1.07.09.19.17.39.26.58-.19-.45,0,.12.09.28a17.76,17.76,0,0,1,.8,2.94c0,.11,0,.21,0,.31s.07.51,0,.19,0,0,0,.09,0,.28,0,.42c0,.56.06,1.12.05,1.68l1.24-2.16c-.59.33.36-.07,0,0a5.18,5.18,0,0,0-.53.14c.45-.2.47-.05.13,0h-.28c-.26,0-.18,0,.26.05a6.12,6.12,0,0,0-.93-.26c.38.17.45.2.21.08l-.25-.13c-.14-.08-.27-.19-.42-.26s-.08-.05.23.18l-.22-.18c-.14-.13-.26-.27-.39-.4-.35-.35.3.48.05.07l-.29-.48c-.22-.36.19.61,0,0,0-.13-.07-.26-.1-.39-.11-.41,0,.66,0,0s-.09.42,0,0a2.5,2.5,0,0,0-4.82-1.33,6.78,6.78,0,0,0,3.94,7.44,6.57,6.57,0,0,0,4.67.44,6.12,6.12,0,0,0,1.18-.49,2.66,2.66,0,0,0,1.36-2.44,17.52,17.52,0,0,0-.23-3,20.12,20.12,0,0,0-1.44-5,11.61,11.61,0,0,0-2.68-4,6.56,6.56,0,0,0-4.9-2,5.73,5.73,0,0,0-4.25,2.45c-1.76,2.44-1.5,6-.91,8.76a2.51,2.51,0,0,0,3.07,1.74,2.55,2.55,0,0,0,1.75-3.07Z" transform="translate(-140.92 -204.11)"/><path class="cls-1" d="M175.69,332.69l.11-4-2.5,2.5c.5,0-.57-.1-.11,0l.42.08c.27.07.54.14.81.23a2.62,2.62,0,0,0,.39.15c-.66-.16-.29-.12-.09,0s.5.26.73.4l.35.23c.34.24.14.15-.05,0,.19.2.44.36.64.55a8.36,8.36,0,0,1,.58.61,2.14,2.14,0,0,0,.28.32c-.25-.32-.29-.37-.14-.16a1.09,1.09,0,0,1,.13.17,11.18,11.18,0,0,1,.84,1.47c.24.49-.1-.32,0-.08s.1.26.14.39a8.19,8.19,0,0,1,.23.81l.09.41c.11.56,0-.36,0-.11s0,.56,0,.84,0,.56,0,.84.14-.66,0-.11c0,.16-.07.32-.11.48l1.15-1.49c-.43.2.55-.18.13-.06l-.36.11c-.12,0-.25,0-.37.08.58-.19.47-.05.18,0a5.88,5.88,0,0,1-.73,0c-.47,0,.63.14.17,0l-.36-.08-.35-.11c-.2-.07-.53-.28.13.07-.21-.11-.42-.19-.62-.31s-.43-.28-.64-.42.49.44.1.08l-.28-.26c-.17-.16-.33-.33-.49-.51l-.16-.2.24.3a2.18,2.18,0,0,0-.22-.31,7,7,0,0,1-.37-.66c-.12-.24-.08-.45,0,.14a2.42,2.42,0,0,0-.12-.35,1.85,1.85,0,0,1-.17-.72l.06.42a1.94,1.94,0,0,1,0-.24c0-.12,0-.24,0-.37s0-.25,0-.37c0,.14-.13.65,0,.24a7.19,7.19,0,0,1,.24-.79,2.5,2.5,0,0,0-1.74-3.08,2.59,2.59,0,0,0-3.08,1.75,7.47,7.47,0,0,0,1,6.82,9.12,9.12,0,0,0,6.37,3.91,6.89,6.89,0,0,0,3.69-.63c1.6-.71,1.77-2.94,1.7-4.49a11.87,11.87,0,0,0-2.85-7,10.9,10.9,0,0,0-7.39-3.84,2.53,2.53,0,0,0-2.5,2.5l-.11,4a2.51,2.51,0,0,0,2.5,2.5,2.55,2.55,0,0,0,2.5-2.5Z" transform="translate(-140.92 -204.11)"/><path class="cls-1" d="M159.44,399.92a78.51,78.51,0,0,1,25.1-1.93l-.66-4.91s-.81.14-.52.14-.42-.11-.46-.12a6.62,6.62,0,0,1-1-.74c-1.06-.93-2-2-3-3a14,14,0,0,0-8.51-3.83,33.86,33.86,0,0,0-9.42.6,8.22,8.22,0,0,0-4.25,1.65,4.69,4.69,0,0,0-1.25,5,51.84,51.84,0,0,0,2.14,5.24,24.54,24.54,0,0,0,2.18,4.84c2.7,3.82,7,1.61,10.38.13,1.76-.78,3.49-1.6,5.21-2.47a22.48,22.48,0,0,0,4.6-2.68,4.52,4.52,0,0,0,1.68-4.28,5.74,5.74,0,0,0-3.55-3.91,24.73,24.73,0,0,0-22.08.63c-2,1.07-1.37,3.94.59,4.57a16.85,16.85,0,0,0,15-2.4l-3-3.93a33.48,33.48,0,0,0-4.92,7.33l2.16-1.24c-.32,0-.35,0-.1,0s.2.1-.06-.05a.29.29,0,0,1,.2.2c-.1-.15-.18-.3-.26-.45.13.3-.08-.43-.08-.43.06.44.16-.75,0-.3.23-.89,1.84-1.49,3-1.76A55.23,55.23,0,0,1,182,390.7l-2.16-1.24a1.79,1.79,0,0,1,.24,1.61,4.12,4.12,0,0,1-1,1.8c-1.44,1.48-3.74,1.86-5.68,2.21-4.36.81-8.94,1.72-11.45,5.8-1.69,2.75,2.64,5.26,4.32,2.52,1.95-3.17,6.89-3.08,10.08-3.83,4.1-1,8-3.5,8.73-8,.34-2.21-.31-5.69-3.05-5.9a46.36,46.36,0,0,0-7.54.29c-4,.36-9.5.5-12.35,3.89s-1.28,10,3.79,9.69a2.52,2.52,0,0,0,2.16-1.24,28.37,28.37,0,0,1,4.13-6.31,2.52,2.52,0,0,0,.2-3.28,2.48,2.48,0,0,0-3.23-.65A12.15,12.15,0,0,1,158,390l.6,4.57A19.59,19.59,0,0,1,173,393a15.25,15.25,0,0,1,3.16,1.2c.19.1.37.21.56.3.46.22,0,.31.12,0l0-.38c.22-.34.24-.41,0-.2a5.16,5.16,0,0,0-.55.43,71.92,71.92,0,0,1-8,4,22.59,22.59,0,0,1-3.89,1.6c-.3.06-.55.06-.47.11-.33-.23-.54-1-.69-1.39-.59-1.41-1.17-2.83-1.75-4.24-.25-.59-.5-1.18-.74-1.78-.14-.34-.29-.68-.41-1a3.09,3.09,0,0,1-.18-.59.44.44,0,0,1-.15.47s2-.51,2.27-.56c1.17-.19,2.35-.36,3.53-.46a15.77,15.77,0,0,1,6.73.59c4.51,1.65,6.84,8.85,12.61,6.84a2.51,2.51,0,0,0-.67-4.91,83.06,83.06,0,0,0-26.43,2.11c-3.13.76-1.8,5.58,1.33,4.82Z" transform="translate(-140.92 -204.11)"/></svg>